<svg width="534" height="336" viewBox="0 0 534 336" fill="none" xmlns="http://www.w3.org/2000/svg">
<path d="M318.974 163.32L306.785 151.168L294.596 163.32L306.785 175.471L318.974 163.32Z" stroke="#FF6900" stroke-width="2.1081" stroke-miterlimit="10"/>
<path d="M129.285 178.661C133.701 183.063 138.116 187.465 142.532 191.866C143.162 192.494 143.792 193.122 144.422 193.751C144.996 194.324 145.968 194.325 146.543 193.751C150.959 189.349 155.374 184.947 159.79 180.546C160.42 179.918 161.05 179.29 161.68 178.661C162.253 178.09 162.254 177.112 161.68 176.54C157.264 172.138 152.849 167.736 148.433 163.335C147.803 162.707 147.173 162.079 146.543 161.45C145.969 160.877 144.997 160.876 144.422 161.45C140.006 165.852 135.591 170.254 131.175 174.655C130.545 175.283 129.915 175.911 129.285 176.54C127.916 177.905 130.037 180.027 131.406 178.661C135.822 174.259 140.237 169.857 144.653 165.456C145.283 164.828 145.913 164.2 146.543 163.571C145.836 163.571 145.129 163.571 144.422 163.571C148.838 167.973 153.253 172.375 157.669 176.776C158.299 177.404 158.929 178.032 159.559 178.661C159.559 177.954 159.559 177.247 159.559 176.54C155.143 180.942 150.728 185.344 146.312 189.745C145.682 190.373 145.052 191.001 144.422 191.63C145.129 191.63 145.836 191.63 146.543 191.63C142.128 187.228 137.712 182.826 133.296 178.425C132.666 177.797 132.036 177.169 131.406 176.54C130.038 175.175 127.915 177.295 129.285 178.661Z" fill="black"/>
<path d="M118.664 35.7322L126.073 43.1182L133.482 35.7322L126.073 28.3462L118.664 35.7322Z" fill="black"/>
<path d="M389.804 30.5602L398.648 39.3762L407.491 30.5602L398.648 21.7441L389.804 30.5602Z" fill="black"/>
<path d="M156.394 135.092C160.439 135.092 163.717 131.823 163.717 127.791C163.717 123.759 160.439 120.49 156.394 120.49C152.349 120.49 149.07 123.759 149.07 127.791C149.07 131.823 152.349 135.092 156.394 135.092Z" fill="#FF6900"/>
<path d="M106.144 222.365C109.193 222.365 111.665 219.901 111.665 216.862C111.665 213.822 109.193 211.358 106.144 211.358C103.095 211.358 100.624 213.822 100.624 216.862C100.623 219.901 103.095 222.365 106.144 222.365Z" fill="#FF6900"/>
<path d="M276.276 199.789C278.579 199.789 280.445 197.928 280.445 195.633C280.445 193.338 278.579 191.477 276.276 191.477C273.974 191.477 272.108 193.338 272.108 195.633C272.108 197.928 273.974 199.789 276.276 199.789Z" fill="#FF6900"/>
<path d="M55.2188 113.793C58.3688 113.75 61.1248 111.814 62.2408 108.873C63.3198 106.031 62.3978 102.576 60.0398 100.655C57.6008 98.6682 54.1418 98.2992 51.4028 99.9312C48.6758 101.555 47.3378 104.708 47.8958 107.8C48.5248 111.282 51.7538 113.746 55.2188 113.793C57.1498 113.819 57.1508 110.819 55.2188 110.793C53.3958 110.768 51.6078 109.613 51.0348 107.928C50.9488 107.676 50.8738 107.422 50.8198 107.161C50.7658 106.9 50.7678 106.948 50.7528 106.59C50.7248 105.922 50.7568 105.693 50.9138 105.131C50.9568 104.978 51.0048 104.827 51.0608 104.678C51.0698 104.655 51.1738 104.418 51.0908 104.6C51.1988 104.363 51.3258 104.134 51.4658 103.915C51.7398 103.484 51.9728 103.223 52.4578 102.825C52.3058 102.95 52.5048 102.79 52.5238 102.776C52.6508 102.685 52.7818 102.601 52.9158 102.521C53.0048 102.468 53.0968 102.417 53.1888 102.368C53.1788 102.373 53.6408 102.155 53.4018 102.256C53.6458 102.154 53.9018 102.076 54.1578 102.012C54.5028 101.926 54.5528 101.919 54.8018 101.902C55.3468 101.865 55.7588 101.895 56.1208 101.976C56.7788 102.122 57.0078 102.217 57.5188 102.522C59.0618 103.441 59.9708 105.372 59.6328 107.082C59.1938 109.302 57.3848 110.764 55.2168 110.793C53.2898 110.819 53.2848 113.819 55.2188 113.793Z" fill="black"/>
<path d="M462.519 119.143C464.075 119.143 465.336 117.886 465.336 116.335C465.336 114.784 464.075 113.527 462.519 113.527C460.963 113.527 459.702 114.784 459.702 116.335C459.702 117.886 460.963 119.143 462.519 119.143Z" fill="black"/>
<path d="M292.161 102.519C294.712 102.519 296.78 100.457 296.78 97.9141C296.78 95.3711 294.712 93.3091 292.161 93.3091C289.61 93.3091 287.542 95.3711 287.542 97.9141C287.542 100.457 289.61 102.519 292.161 102.519Z" fill="black"/>
<path d="M422.745 92.073C428.905 92.073 433.899 87.095 433.899 80.953C433.899 74.811 428.905 69.833 422.745 69.833C416.585 69.833 411.591 74.811 411.591 80.953C411.591 87.095 416.585 92.073 422.745 92.073Z" stroke="#FF6900" stroke-width="2.1081" stroke-miterlimit="10"/>
<path d="M319.769 45.4623V12.2163H314.474C312.446 12.2163 310.981 10.9803 310.981 9.29626C310.981 7.72426 312.558 6.48828 314.361 6.48828H323.037C325.403 6.48828 326.867 7.38727 326.867 9.52127V45.4633C326.867 47.4853 325.515 48.9453 323.262 48.9453C321.121 48.8313 319.769 47.5963 319.769 45.4623Z" fill="#FF6900"/>
<path d="M197.974 163.06C197.974 160.813 199.551 158.117 202.48 155.646L224.902 135.429C228.282 132.396 236.619 124.871 236.619 118.019C236.619 114.538 234.141 112.516 230.986 112.516C227.042 112.516 223.662 114.538 221.522 121.389C220.395 124.871 217.691 126.668 213.973 126.668C210.142 126.668 207.663 124.085 207.776 120.266C207.889 107.798 218.254 97.9141 232.225 97.9141C242.816 97.9141 253.52 102.969 253.52 115.998C253.52 126.443 244.506 135.429 235.042 143.628L222.536 154.86H238.422C242.816 154.86 245.971 157.331 245.971 161.936C245.971 166.092 242.816 169.012 238.535 169.012H205.072C200.678 168.9 197.974 166.429 197.974 163.06Z" fill="black"/>
<path d="M95.104 105.778C95.104 89.6042 103.441 74.5532 113.694 74.5532C120.679 74.5532 124.736 79.9442 124.736 89.2672C124.736 105.441 116.398 120.492 106.145 120.492C99.273 120.492 95.104 115.213 95.104 105.778ZM120.004 88.8172C120.004 82.8642 118.314 78.7082 113.47 78.7082C105.921 78.7082 99.949 94.2082 99.949 106.226C99.949 112.179 101.639 116.335 106.372 116.335C114.146 116.336 120.004 100.948 120.004 88.8172Z" fill="black"/>
<path d="M356.758 123.411C356.758 120.977 356.758 118.544 356.758 116.11C356.758 115.299 356.071 114.61 355.258 114.61C346.816 114.61 338.374 114.61 329.933 114.61C327.695 114.61 325.029 114.199 323.98 111.922C322.717 109.181 324.879 105.789 326.277 103.564C327.876 101.019 329.534 98.509 331.162 95.982C336.719 87.358 342.277 78.7331 347.834 70.1091C348.26 69.4471 348.672 68.7741 349.114 68.1221C351.119 65.1681 354.139 63.8531 357.652 63.7131C361.498 63.5601 365.198 64.907 367.027 68.487C367.934 70.262 368.066 72.196 368.066 74.145C368.066 83.447 368.066 92.749 368.066 102.052C368.066 102.32 368.066 102.588 368.066 102.856C368.066 103.667 368.753 104.356 369.566 104.356C371.386 104.356 373.36 104.168 375.149 104.55C377.735 105.101 378.996 106.868 378.995 109.483C378.994 112.134 377.666 113.881 375.063 114.427C373.3 114.797 371.357 114.61 369.566 114.61C368.755 114.61 368.066 115.297 368.066 116.11C368.066 117.786 368.066 119.462 368.066 121.138C368.066 123.098 368.221 125.158 367.322 126.968C366.119 129.389 363.276 130.223 360.751 129.591C357.862 128.866 356.797 126.155 356.758 123.411C356.731 121.482 353.731 121.477 353.758 123.411C353.797 126.173 354.595 129.042 356.793 130.871C358.986 132.697 362.063 133.156 364.796 132.487C367.416 131.845 369.403 129.962 370.362 127.468C371.077 125.607 371.068 123.641 371.068 121.682C371.068 119.825 371.068 117.967 371.068 116.11C370.568 116.61 370.068 117.11 369.568 117.61C373.592 117.61 378.482 117.935 380.882 113.981C382.241 111.743 382.367 108.52 381.429 106.106C380.478 103.66 378.338 102.127 375.799 101.627C373.759 101.225 371.636 101.355 369.567 101.355C370.067 101.855 370.567 102.355 371.067 102.855C371.067 93.6731 371.067 84.4901 371.067 75.3081C371.067 73.7031 371.099 72.117 370.821 70.526C370.162 66.755 367.718 63.415 364.195 61.856C360.295 60.131 355.292 60.2831 351.456 62.1221C349.311 63.1511 347.643 64.91 346.353 66.875C340.992 75.037 335.773 83.2941 330.483 91.5021C328.316 94.8641 326.15 98.2261 323.983 101.588C322.677 103.615 321.364 105.826 320.863 108.209C320.064 112.005 321.786 115.51 325.459 116.933C327.33 117.658 329.299 117.608 331.263 117.608C333.752 117.608 336.24 117.608 338.729 117.608C343.92 117.608 349.111 117.608 354.302 117.608C354.62 117.608 354.939 117.608 355.257 117.608C354.757 117.108 354.257 116.608 353.757 116.108C353.757 118.542 353.757 120.975 353.757 123.409C353.758 125.341 356.758 125.344 356.758 123.411Z" fill="black"/>
<path d="M356.758 102.856C356.758 95.5253 356.758 88.1943 356.758 80.8633C356.758 79.8083 356.758 78.7523 356.758 77.6973C356.758 76.8863 356.071 76.1973 355.258 76.1973C353.792 76.1973 353.262 77.7563 352.628 78.8443C351.497 80.7873 350.365 82.7313 349.234 84.6743C346.501 89.3683 343.768 94.0633 341.035 98.7573C340.386 99.8713 339.738 100.985 339.089 102.099C338.517 103.082 339.246 104.356 340.384 104.356C345.342 104.356 350.299 104.356 355.257 104.356C357.187 104.356 357.191 101.356 355.257 101.356C350.299 101.356 345.342 101.356 340.384 101.356C340.816 102.108 341.247 102.861 341.679 103.613C345.956 96.2663 350.234 88.9193 354.511 81.5713C355.116 80.5323 355.721 79.4933 356.326 78.4533C355.894 78.7013 355.463 78.9483 355.031 79.1963C355.106 79.1963 355.182 79.1963 355.257 79.1963C354.757 78.6963 354.257 78.1963 353.757 77.6963C353.757 85.0273 353.757 92.3583 353.757 99.6893C353.757 100.744 353.757 101.8 353.757 102.855C353.758 104.786 356.758 104.789 356.758 102.856Z" fill="black"/>
<path d="M253.523 61.637C253.523 60.851 254.311 59.84 255.213 59.84C256.79 59.84 258.142 63.884 263.437 63.884C267.719 63.884 270.761 60.177 270.761 54.898C270.761 50.181 268.057 47.036 263.55 47.036C261.184 47.036 259.607 48.608 258.255 48.608C257.466 48.608 256.79 48.046 256.79 47.148C256.79 46.811 256.79 46.25 256.903 45.688L258.931 33.108C259.269 31.086 260.057 30.749 261.071 30.749H272.226C273.24 30.749 274.028 31.423 274.028 32.434C274.028 33.445 273.127 34.119 272.226 34.119H262.536L260.959 44.565C262.198 44.003 263.55 43.666 264.902 43.666C270.423 43.666 274.817 48.383 274.817 54.336C274.817 62.086 270.085 67.14 263.55 67.14C257.917 67.141 253.523 63.209 253.523 61.637Z" fill="black"/>
<path d="M40.4939 223.937C40.5809 220.245 42.7629 216.875 44.4639 213.679C46.1409 210.527 47.8179 207.375 49.4959 204.224C53.9169 195.916 58.3389 187.607 62.7599 179.299C63.8329 177.283 64.9049 175.268 65.9779 173.252C66.5059 172.259 65.8539 170.995 64.6829 170.995C58.7119 170.995 52.7409 170.995 46.7699 170.995C44.6699 170.995 42.5599 171.059 40.4609 170.99C35.0449 170.811 31.2649 165.677 32.6799 160.441C33.7279 156.563 37.2489 154.35 41.1409 154.339C43.1939 154.333 45.2479 154.339 47.3019 154.339C54.7899 154.339 62.2789 154.339 69.7669 154.339C72.5629 154.339 75.3589 154.339 78.1539 154.339C80.5189 154.339 82.8779 154.334 85.1069 155.283C87.2439 156.192 88.9339 157.886 89.6069 160.13C90.4469 162.933 89.6679 165.588 88.6409 168.226C87.9399 170.024 87.1019 171.753 86.2209 173.466C80.1799 185.217 74.1399 196.968 68.0989 208.719C65.4549 213.862 62.8119 219.005 60.1679 224.147C59.5949 225.263 59.0649 226.457 58.3339 227.481C55.0979 232.012 47.9789 233.269 43.5039 229.822C41.6659 228.404 40.5349 226.257 40.4939 223.937C40.4599 222.009 37.4599 222.003 37.4939 223.937C37.5979 229.852 42.4829 234.039 48.1219 234.669C53.6039 235.282 59.1029 232.605 61.7119 227.696C63.6709 224.008 65.5319 220.264 67.4409 216.55C71.1649 209.306 74.8879 202.062 78.6119 194.818C81.6939 188.823 84.7759 182.827 87.8579 176.832C90.7669 171.173 94.8059 164.518 92.0529 158.128C89.9969 153.355 84.8899 151.374 79.9789 151.338C78.2189 151.325 76.4579 151.338 74.6979 151.338C66.8479 151.338 58.9969 151.338 51.1469 151.338C48.2049 151.338 45.2629 151.338 42.3209 151.338C39.1839 151.338 36.2249 151.776 33.6579 153.789C29.1219 157.346 27.9799 164.316 31.2979 169.088C33.7419 172.604 37.5759 173.993 41.7169 173.993C48.7359 173.993 55.7539 173.993 62.7729 173.993C63.4099 173.993 64.0459 173.993 64.6829 173.993C64.2509 173.241 63.8199 172.488 63.3879 171.736C60.4289 177.297 57.4699 182.857 54.5109 188.418C50.3819 196.177 46.2529 203.937 42.1229 211.696C40.0869 215.522 37.5989 219.503 37.4949 223.936C37.4479 225.868 40.4479 225.867 40.4939 223.937Z" fill="black"/>
<path d="M162.368 64.2192C162.368 53.7732 167.551 45.0122 176.79 42.0922V41.7552C170.03 37.5992 165.861 30.4112 165.861 22.7732C165.861 11.2042 175.889 1.65723 189.184 1.65723C202.253 1.65723 212.506 10.8672 212.506 22.7732C212.506 30.4112 208.337 37.3752 201.577 41.7552V42.0922C210.703 45.0122 215.999 53.7732 215.999 64.2192C215.999 79.3822 205.521 91.1762 189.184 91.1762C172.846 91.1752 162.368 79.3822 162.368 64.2192ZM204.169 63.2082C204.169 53.6612 198.084 46.2482 188.958 46.2482C180.17 46.2482 174.086 53.6612 174.086 63.2082C174.086 72.4182 179.832 80.9542 189.184 80.9542C198.31 80.9542 204.169 72.4182 204.169 63.2082ZM201.464 23.8962C201.464 17.0442 196.282 11.6532 188.958 11.6532C182.085 11.6532 176.79 16.8202 176.79 23.8962C176.79 31.7582 181.635 36.9252 189.071 36.9252C196.958 36.9252 201.464 31.6462 201.464 23.8962Z" stroke="#FF6900" stroke-width="1.5811" stroke-miterlimit="10" stroke-linecap="round" stroke-linejoin="round"/>
<path d="M461.394 58.266C461.394 46.023 467.366 33.331 477.393 21.875C483.815 14.462 486.069 12.103 488.773 12.103C491.477 12.103 493.392 14.574 493.392 16.82C493.392 18.954 492.04 19.853 487.871 24.008C483.365 28.501 479.759 33.443 476.942 38.834L477.168 39.059C479.309 38.048 481.675 37.15 485.28 37.15C496.209 37.15 503.42 45.911 503.42 58.154C503.42 70.172 495.646 80.506 482.689 80.506C468.83 80.617 461.394 70.059 461.394 58.266ZM493.054 58.603C493.054 50.853 488.66 45.237 482.238 45.237C475.59 45.237 471.647 50.291 471.647 58.491C471.647 65.567 475.816 71.408 482.125 71.408C488.547 71.407 493.054 66.24 493.054 58.603Z" fill="black"/>
<path d="M39.1058 72.8672C39.1058 69.2732 43.4998 65.7912 48.7948 61.1862C51.1608 58.9402 53.8648 56.4692 56.4568 53.5482L56.2318 53.3232C54.6548 53.8852 52.8518 54.2221 50.9368 54.2221C42.8248 54.2221 36.4028 48.0442 36.4028 37.5992C36.4028 25.6932 45.9798 14.9102 59.7258 14.9102C71.3308 14.9102 79.4428 22.2112 79.4428 34.2292C79.4428 47.1462 68.8518 58.4902 59.2748 67.7002C52.2888 74.3272 48.4588 77.8091 44.6278 77.8091C41.6978 77.8091 39.1058 76.1242 39.1058 72.8672ZM66.0338 34.2292C66.0338 30.6352 63.5548 27.6021 59.2738 27.6021C53.7528 27.6021 50.3728 32.0951 50.3728 37.1491C50.3728 40.7431 52.8518 43.8882 57.1328 43.8882C62.6538 43.8892 66.0338 39.2842 66.0338 34.2292Z" fill="black"/>
<path d="M57.6989 260.889C56.5719 260.777 47.3329 260.665 36.6299 252.802C25.9259 244.94 28.1799 281.219 28.1799 281.219L57.3609 279.534L57.6989 260.889Z" fill="white"/>
<path d="M57.699 259.389C52.909 258.95 48.313 257.741 43.948 255.544C41.872 254.499 39.881 253.288 37.987 251.94C37.152 251.346 36.357 250.776 35.376 250.445C34 249.981 32.517 250.17 31.338 251.022C28.558 253.032 27.827 257.279 27.341 260.43C26.679 264.724 26.492 269.081 26.482 273.421C26.476 276.019 26.519 278.624 26.679 281.218C26.727 281.991 27.328 282.767 28.179 282.718C36.685 282.227 45.191 281.736 53.697 281.245C54.918 281.175 56.139 281.104 57.361 281.033C58.182 280.986 58.846 280.384 58.861 279.533C58.974 273.318 59.086 267.103 59.199 260.888C59.234 258.957 56.234 258.957 56.199 260.888C56.086 267.103 55.974 273.318 55.861 279.533C56.361 279.033 56.861 278.533 57.361 278.033C48.855 278.524 40.349 279.015 31.843 279.506C30.622 279.576 29.401 279.647 28.179 279.718C28.679 280.218 29.179 280.718 29.679 281.218C29.311 275.246 29.329 269.16 29.977 263.21C30.181 261.336 30.476 259.462 30.967 257.64C31.072 257.248 31.187 256.859 31.316 256.475C31.415 256.18 31.626 255.62 31.651 255.563C31.786 255.252 31.937 254.946 32.106 254.652C32.185 254.515 32.269 254.381 32.353 254.247C32.411 254.155 32.684 253.806 32.495 254.036C32.67 253.825 32.859 253.625 33.069 253.449C32.732 253.73 33.784 253.101 33.329 253.293C33.434 253.249 33.569 253.205 33.682 253.193C33.719 253.189 33.412 253.228 33.759 253.189C33.82 253.182 34.225 253.208 34.006 253.185C33.813 253.165 34.263 253.243 34.334 253.263C34.912 253.429 35.552 253.873 36.273 254.39C38.116 255.712 40.048 256.91 42.066 257.948C47.022 260.5 52.182 261.885 57.699 262.39C59.621 262.565 59.609 259.564 57.699 259.389Z" fill="black"/>
<path d="M314.92 333.783C311.089 336.591 295.654 318.058 292.612 312.442C289.569 306.826 308.273 297.616 308.273 297.616L321.793 324.123L314.92 333.783Z" fill="#FF6900"/>
<path d="M314.163 332.488C313.996 332.601 313.985 332.611 313.721 332.547C313.05 332.384 312.822 332.259 312.178 331.886C310.582 330.964 309.175 329.735 307.827 328.488C304.379 325.299 301.26 321.731 298.35 318.05C297.181 316.571 296.048 315.056 295.007 313.483C294.626 312.907 294.202 312.313 293.907 311.686C293.753 311.357 293.722 311.11 293.848 310.63C294.177 309.377 295.413 308.071 296.464 307.086C297.947 305.695 299.599 304.501 301.292 303.382C303.772 301.743 306.363 300.229 309.03 298.913C308.346 298.734 307.662 298.554 306.978 298.375C312.103 305.613 317.227 312.85 322.352 320.088C323.086 321.124 323.82 322.161 324.554 323.197C324.632 322.591 324.71 321.985 324.788 321.379C321.145 325.161 317.502 328.942 313.859 332.724C312.519 334.115 314.638 336.239 315.98 334.845C319.623 331.063 323.266 327.282 326.909 323.5C327.338 323.055 327.528 322.225 327.144 321.682C322.019 314.445 316.894 307.207 311.77 299.969C311.036 298.933 310.302 297.896 309.568 296.86C309.074 296.163 308.298 295.936 307.516 296.322C304.995 297.566 302.545 298.991 300.189 300.522C296.863 302.683 292.533 305.462 291.105 309.379C290.501 311.036 290.873 312.502 291.757 313.962C292.765 315.626 293.932 317.197 295.115 318.74C298.232 322.806 301.593 326.737 305.325 330.255C307.022 331.854 308.839 333.483 310.896 334.609C312.293 335.374 314.208 336.082 315.679 335.081C317.264 333.998 315.765 331.398 314.163 332.488Z" fill="black"/>
<path d="M344.275 236.527C343.619 236.396 344.875 236.866 344.612 236.991C344.597 236.998 344.681 236.434 344.69 236.39C344.874 235.495 345.277 234.625 345.657 233.8C346.731 231.465 347.985 229.214 349.188 226.943C351.113 223.309 352.499 219.468 354.213 215.739C355.02 213.983 356.787 209.456 359.28 209.804C360.696 210.001 362.138 211.044 363.295 211.809C364.785 212.795 366.192 213.9 367.558 215.05C369.564 216.739 371.512 218.516 373.349 220.389C373.349 219.682 373.349 218.975 373.349 218.268C369.491 221.621 365.634 224.975 361.776 228.328C359.729 230.108 357.682 231.887 355.634 233.667C355.435 233.84 355.212 234.003 355.029 234.193C354.597 234.642 355.767 233.992 355.431 233.967C355.104 233.942 354.639 234.137 354.325 234.204C353.625 234.354 352.925 234.504 352.225 234.654C349.309 235.279 346.394 235.903 343.478 236.528C341.591 236.932 342.39 239.825 344.275 239.421C346.848 238.87 349.42 238.319 351.993 237.767C353.677 237.406 355.933 237.351 357.287 236.196C361.786 232.357 366.216 228.435 370.679 224.555C372.276 223.167 373.873 221.779 375.47 220.391C376.086 219.856 376.007 218.817 375.47 218.27C373.598 216.361 371.611 214.551 369.564 212.834C367.894 211.434 366.168 210.076 364.327 208.908C362.868 207.982 361.138 206.946 359.374 206.809C355.541 206.513 353.282 210.729 351.891 213.652C349.842 217.958 348.216 222.392 345.97 226.611C344.55 229.279 342.966 231.975 342.013 234.857C341.474 236.487 341.276 238.98 343.479 239.421C345.362 239.798 346.169 236.907 344.275 236.527Z" fill="black"/>
<path d="M385.339 148.456C378.467 151.04 360.101 165.641 356.158 170.359C348.046 180.243 290.81 217.87 292.613 233.37C293.063 236.739 293.514 240.895 299.711 242.131C318.301 245.725 366.524 232.359 366.524 232.359C366.524 232.359 383.649 209.109 369.453 208.772C350.074 208.435 331.596 214.388 331.596 214.388C331.596 214.388 347.482 190.576 355.144 189.678C355.144 189.678 371.368 190.352 376.326 182.04C379.931 175.862 394.24 181.029 395.367 179.007C396.268 177.323 391.874 174.065 387.818 172.493L387.593 169.685C387.593 169.685 403.028 167.551 403.028 164.967C403.028 160.699 387.367 164.181 387.367 164.181L391.424 143.402L385.339 148.456Z" fill="white"/>
<path d="M384.94 147.009C380.227 148.818 375.976 152.053 371.943 155.018C367.21 158.499 362.563 162.158 358.236 166.137C356.046 168.151 354.17 170.449 351.965 172.447C349.06 175.079 345.993 177.533 342.934 179.982C334.518 186.719 325.983 193.309 317.74 200.261C310.06 206.739 302.24 213.474 296.115 221.495C294.097 224.137 292.072 227.131 291.337 230.428C290.446 234.425 291.745 239.61 295.233 241.967C297.47 243.479 300.283 243.835 302.914 244.064C305.279 244.27 307.66 244.279 310.031 244.198C315.691 244.005 321.333 243.306 326.928 242.456C337.604 240.834 348.181 238.541 358.66 235.945C361.253 235.303 363.843 234.642 366.421 233.941C368.034 233.503 368.903 231.594 369.764 230.269C372.028 226.786 374.121 223.106 375.507 219.178C376.652 215.932 377.561 211.356 374.493 208.844C372.415 207.142 369.609 207.24 367.075 207.261C362.578 207.298 358.085 207.646 353.625 208.218C347.038 209.063 340.498 210.339 334.092 212.097C333.123 212.363 332.153 212.634 331.196 212.942C331.761 213.676 332.325 214.411 332.89 215.145C335.385 211.409 338.069 207.782 340.875 204.275C343.176 201.399 345.575 198.581 348.21 196.004C350.022 194.232 352.346 192.026 354.639 191.322C355.235 191.139 355.203 191.189 355.978 191.191C357.048 191.193 358.118 191.149 359.185 191.071C362.617 190.821 366.096 190.265 369.327 189.05C371.088 188.388 372.784 187.562 374.288 186.421C375.809 185.267 376.711 183.89 377.864 182.417C379.789 179.958 384.033 180.289 386.774 180.464C388.56 180.578 390.334 180.809 392.118 180.942C393.326 181.032 394.824 181.186 395.909 180.521C397.846 179.334 396.751 176.924 395.579 175.64C393.638 173.511 390.849 172.096 388.215 171.045C388.582 171.527 388.949 172.009 389.316 172.491C389.241 171.555 389.166 170.619 389.091 169.683C388.724 170.165 388.357 170.647 387.99 171.129C390.001 170.85 392.005 170.498 393.996 170.099C396.878 169.522 400.161 168.972 402.73 167.455C403.678 166.895 404.529 166.079 404.524 164.9C404.519 163.68 403.717 162.684 402.667 162.149C400.138 160.861 396.708 161.288 394.001 161.589C391.643 161.851 389.283 162.219 386.966 162.732C387.581 163.347 388.196 163.962 388.811 164.577C390.163 157.651 391.516 150.724 392.868 143.798C393.164 142.282 391.527 141.37 390.361 142.339C388.333 144.024 386.304 145.708 384.276 147.393C382.789 148.628 384.922 150.74 386.397 149.514C388.425 147.829 390.454 146.145 392.482 144.46C391.646 143.974 390.811 143.487 389.975 143.001C388.623 149.927 387.27 156.854 385.918 163.78C385.695 164.922 386.597 165.883 387.763 165.625C391.596 164.776 396.038 163.884 399.904 164.441C400.319 164.501 400.942 164.663 401.193 164.757C401.07 164.711 401.714 165.075 401.416 164.865C401.692 165.06 401.465 165.015 401.502 164.879C401.468 165.004 401.459 164.993 401.52 164.837C401.502 164.884 401.397 165.265 401.558 164.731C401.617 164.533 401.736 164.534 401.648 164.554C401.381 164.614 401.611 164.617 401.403 164.751C401.205 164.879 400.997 164.989 400.786 165.094C398.531 166.214 395.7 166.707 393.197 167.208C391.206 167.607 389.202 167.958 387.191 168.237C386.59 168.32 386.043 169.094 386.09 169.683C386.165 170.619 386.24 171.555 386.315 172.491C386.374 173.222 386.754 173.673 387.416 173.937C389.572 174.798 392.198 176.087 393.648 177.977C393.707 178.054 393.999 178.523 393.982 178.524C393.893 178.53 394.426 177.704 394.318 177.973C394.409 177.745 394.603 177.973 394.299 177.957C394.229 177.953 394.133 177.998 394.065 178.002C394.391 177.983 393.638 178.005 393.516 178.005C390.368 178.01 387.255 177.338 384.097 177.385C380.862 177.432 377.253 178.071 375.271 180.901C374.322 182.257 373.417 183.429 372.019 184.369C370.586 185.332 369.008 186.032 367.367 186.559C364.405 187.51 361.303 187.971 358.202 188.13C356.685 188.208 355.08 187.997 353.621 188.498C350.975 189.407 348.72 191.384 346.718 193.273C344.154 195.693 341.831 198.366 339.604 201.095C336.318 205.122 333.183 209.305 330.296 213.628C329.575 214.707 330.773 216.222 331.99 215.831C342.606 212.421 354.06 210.594 365.181 210.292C367.412 210.231 370.707 209.733 372.547 211.106C372.823 211.312 373.218 211.884 373.325 212.186C373.593 212.94 373.602 213.315 373.571 214.15C373.437 217.723 371.421 221.504 369.659 224.646C368.317 227.038 366.85 229.387 365.224 231.599C365.523 231.369 365.822 231.139 366.12 230.91C355.256 233.919 344.204 236.402 333.112 238.398C325 239.857 316.76 241.11 308.504 241.234C305.262 241.283 301.696 241.324 298.584 240.286C295.259 239.177 294.035 235.843 294.066 232.557C294.074 231.674 294.197 231.118 294.561 230.038C294.869 229.124 295.272 228.282 295.835 227.28C297.206 224.838 298.938 222.613 300.763 220.497C305.627 214.857 311.198 209.826 316.826 204.966C328.126 195.211 340.206 186.418 351.577 176.756C355.14 173.729 358.139 170.199 361.63 167.105C367.976 161.48 374.818 156.067 382.133 151.753C383.277 151.078 384.639 150.32 385.732 149.9C387.522 149.218 386.747 146.316 384.94 147.009Z" fill="black"/>
<path d="M67.9499 256.734C67.1609 256.621 52.9649 259.879 52.9649 259.879C52.9649 259.879 48.0079 273.694 51.2749 280.77L75.0479 282.904L67.9499 256.734Z" fill="white"/>
<path d="M67.9499 255.234C67.2639 255.179 66.4649 255.424 65.7919 255.552C64.5189 255.794 63.2509 256.064 61.9839 256.336C59.3039 256.911 56.6289 257.509 53.9559 258.116C53.4079 258.24 52.7049 258.293 52.2069 258.584C51.5589 258.964 51.3729 259.887 51.1579 260.559C50.2579 263.385 49.5509 266.287 49.1139 269.222C48.5059 273.311 48.2629 277.664 49.9779 281.527C50.1989 282.025 50.7809 282.226 51.2729 282.27C58.1969 282.892 65.1219 283.513 72.0459 284.135C73.0459 284.225 74.0459 284.315 75.0459 284.404C76.0359 284.493 76.7289 283.376 76.4919 282.505C74.4209 274.87 72.3499 267.235 70.2799 259.601C69.9849 258.512 69.6889 257.424 69.3939 256.335C68.8889 254.474 65.9939 255.264 66.5009 257.133C68.5719 264.768 70.6429 272.402 72.7129 280.037C73.0079 281.126 73.3039 282.214 73.5989 283.303C74.0809 282.67 74.5629 282.037 75.0449 281.404C68.1209 280.782 61.1959 280.161 54.2719 279.539C53.2719 279.449 52.2719 279.359 51.2719 279.27C51.7039 279.518 52.1349 279.765 52.5669 280.013C50.9069 276.274 51.6499 271.497 52.4229 267.634C52.9199 265.151 53.5549 262.665 54.4079 260.278C54.0589 260.627 53.7099 260.976 53.3599 261.326C55.7149 260.786 58.0729 260.257 60.4319 259.738C62.1089 259.37 63.7879 259.005 65.4709 258.664C66.0939 258.538 66.7179 258.416 67.3439 258.305C67.4999 258.277 68.0459 258.201 67.6059 258.255C67.7179 258.241 67.8329 258.224 67.9459 258.233C69.8749 258.387 69.8649 255.387 67.9499 255.234Z" fill="black"/>
<path d="M67.6152 261.114C66.8262 261.001 52.6302 263.472 52.6302 263.472C52.6302 263.472 47.8982 274.817 51.2782 280.77L75.0512 282.904L67.6152 261.114Z" fill="black"/>
<path d="M461.504 190.465C458.237 181.48 454.293 160.925 431.309 167.215C424.549 169.125 414.183 174.179 413.282 180.019C411.93 188.556 400.099 187.433 395.931 212.592C395.48 215.175 396.381 217.759 398.635 219.219L407.536 225.284C407.536 225.284 405.282 232.473 403.93 234.045C397.17 241.683 423.647 249.321 423.647 249.321C434.013 235.618 443.59 221.016 445.054 218.882C463.194 218.096 467.138 206.078 461.504 190.465Z" fill="white"/>
<path d="M462.95 190.066C460.516 183.333 458.734 176.203 453.779 170.766C450.96 167.672 447.19 165.532 443.047 164.854C437.556 163.956 431.933 165.148 426.814 167.159C421.785 169.135 415.86 171.962 412.946 176.764C412.361 177.728 412.016 178.75 411.797 179.847C411.739 180.139 411.675 180.428 411.592 180.714C411.552 180.852 411.506 180.988 411.461 181.124C411.439 181.191 411.414 181.257 411.389 181.324C411.293 181.582 411.42 181.267 411.354 181.418C410.829 182.618 410.295 183.275 409.502 184.138C407.512 186.305 405.231 188.167 403.347 190.441C400.345 194.063 398.231 198.249 396.757 202.705C395.701 205.897 394.896 209.232 394.43 212.563C393.981 215.77 395.235 218.668 397.885 220.519C400.519 222.36 403.198 224.139 405.854 225.949C406.163 226.159 406.471 226.37 406.78 226.58C406.55 226.015 406.32 225.451 406.091 224.886C405.24 227.592 404.435 230.694 402.817 233.053C402.248 233.882 401.415 235.032 401.336 236.384C401.267 237.555 401.68 238.725 402.318 239.694C403.947 242.168 406.704 243.841 409.261 245.207C412.079 246.713 415.053 247.939 418.051 249.037C419.764 249.664 421.495 250.261 423.249 250.768C423.949 250.971 424.539 250.613 424.943 250.079C432.429 240.17 439.341 229.883 446.35 219.64C445.918 219.888 445.487 220.135 445.055 220.383C450.799 220.108 457.031 218.754 461.11 214.38C464.616 210.62 465.699 205.405 465.303 200.4C465.021 196.858 464.142 193.404 462.95 190.066C462.305 188.261 459.406 189.039 460.057 190.864C462.75 198.403 464.547 209.075 456.66 214.222C454.691 215.507 452.472 216.282 450.181 216.768C448.976 217.024 447.759 217.191 446.531 217.291C445.197 217.399 444.306 217.338 443.502 218.501C441.169 221.875 438.929 225.314 436.606 228.696C431.989 235.415 427.264 242.061 422.35 248.565C422.915 248.335 423.479 248.105 424.044 247.876C420.038 246.718 416.07 245.235 412.323 243.408C409.888 242.22 407.304 240.874 405.448 238.853C405.097 238.471 404.942 238.262 404.664 237.785C404.496 237.495 404.489 237.438 404.458 237.342C404.43 237.254 404.4 237.163 404.379 237.073C404.311 236.775 404.337 236.892 404.334 236.862C404.285 236.402 404.284 236.351 404.503 235.824C404.586 235.624 405.123 234.977 405.406 234.568C406.448 233.061 407.059 231.181 407.686 229.476C408.147 228.223 408.582 226.959 408.982 225.685C409.191 225.019 408.832 224.359 408.293 223.991C405.777 222.277 403.261 220.562 400.744 218.848C399.503 218.002 398.231 217.251 397.652 215.765C397.072 214.274 397.402 212.745 397.689 211.23C397.993 209.626 398.348 208.031 398.77 206.454C399.986 201.91 401.776 197.52 404.572 193.709C406.313 191.336 408.492 189.385 410.579 187.332C412.318 185.621 413.906 183.711 414.543 181.305C414.738 180.569 414.792 179.806 415.096 179.1C415.529 178.093 416.241 177.222 417.004 176.448C418.978 174.444 421.452 172.963 423.947 171.701C431.73 167.764 442.609 164.93 449.968 171.245C455.794 176.245 457.56 183.959 460.057 190.866C460.709 192.665 463.609 191.888 462.95 190.066Z" fill="black"/>
<path d="M427.254 257.518C447.422 253.25 503.869 261.561 503.869 261.561C503.869 261.561 497.109 242.579 486.18 223.934C486.18 223.934 483.138 225.507 477.505 221.8C473.223 218.88 468.829 218.206 465.337 219.666C459.14 222.362 460.154 217.307 462.745 214.836C465.224 212.59 462.858 211.13 465.9 208.322C469.393 205.177 466.576 195.742 478.406 192.035C482.35 190.8 495.194 208.883 498.123 214.387C501.841 221.239 513.784 233.032 531.586 265.717C534.515 271.108 524.037 277.286 514.686 280.431C489.898 289.079 420.156 286.608 420.156 286.608C420.156 286.608 407.65 261.673 427.254 257.518Z" fill="white"/>
<path d="M427.653 258.964C432.564 257.939 437.67 257.821 442.669 257.8C449.109 257.774 455.55 258.086 461.973 258.529C473.536 259.327 485.071 260.571 496.564 262.063C498.926 262.37 500.983 262.64 503.47 263.006C504.489 263.156 505.743 262.359 505.315 261.161C502.187 252.392 498.316 243.826 494.148 235.511C492.053 231.33 489.834 227.213 487.474 223.176C487.046 222.443 486.148 222.275 485.422 222.638C485.282 222.708 485.856 222.503 485.517 222.59C485.371 222.628 484.797 222.752 484.98 222.729C484.032 222.85 483.08 222.69 482.172 222.422C480.436 221.911 478.982 220.919 477.457 219.982C475.873 219.009 474.118 218.222 472.303 217.8C470.674 217.421 469.003 217.322 467.347 217.568C465.802 217.797 464.46 218.638 462.94 218.886C462.724 218.921 462.243 218.936 462.224 218.941C462.132 218.966 462.049 218.807 462.233 218.988C462.281 219.035 462.206 219.036 462.218 218.865C462.264 218.182 462.58 217.456 463.024 216.805C463.71 215.8 464.701 215.126 465.179 213.962C465.596 212.949 465.416 211.805 465.838 210.807C466.264 209.799 467.304 209.159 467.899 208.245C468.339 207.569 468.641 206.796 468.9 206.035C470.158 202.336 470.649 198.582 473.893 195.963C474.963 195.099 476.226 194.427 477.505 193.931C477.93 193.766 478.365 193.601 478.805 193.478C479.074 193.402 478.495 193.516 478.783 193.472C478.96 193.445 479.043 193.523 478.805 193.457C478.94 193.494 479.077 193.518 479.208 193.568C479.363 193.627 479.459 193.671 479.81 193.876C480.131 194.064 480.442 194.276 480.738 194.502C481.422 195.021 482.057 195.62 482.671 196.22C486.103 199.57 489.042 203.453 491.812 207.355C493.834 210.203 495.592 213.164 497.405 216.139C498.729 218.312 500.287 220.343 501.81 222.377C507.374 229.81 512.794 237.322 517.78 245.161C521.675 251.284 525.358 257.541 528.873 263.889C529.495 265.012 530.644 266.376 530.585 267.736C530.543 268.694 529.985 269.587 529.401 270.315C527.479 272.71 524.614 274.361 521.933 275.756C513.638 280.07 504.366 281.776 495.174 282.911C485.044 284.161 474.831 284.734 464.634 285.077C455.275 285.392 445.909 285.479 436.545 285.41C431.328 285.371 426.11 285.291 420.895 285.129C420.649 285.121 420.402 285.114 420.156 285.105C420.588 285.353 421.019 285.6 421.451 285.848C421.348 285.642 421.251 285.432 421.155 285.222C421.043 284.977 420.934 284.73 420.827 284.482C420.768 284.346 420.699 284.184 420.518 283.731C419.752 281.811 419.105 279.839 418.612 277.831C417.501 273.307 416.962 267.91 419.624 263.804C421.427 261.028 424.521 259.651 427.653 258.964C429.538 258.551 428.74 255.658 426.856 256.071C423.561 256.794 420.311 258.259 418.092 260.879C416.223 263.085 415.236 265.781 414.884 268.626C414.254 273.713 415.526 278.997 417.318 283.736C417.782 284.962 418.275 286.191 418.862 287.364C419.1 287.84 419.651 288.089 420.157 288.107C424.149 288.248 428.145 288.315 432.139 288.367C441.485 288.489 450.835 288.453 460.18 288.211C470.941 287.932 481.717 287.416 492.42 286.234C501.854 285.192 511.317 283.742 520.082 279.944C523.315 278.543 526.46 276.863 529.216 274.651C531.226 273.038 533.26 270.872 533.547 268.192C533.691 266.848 533.274 265.687 532.644 264.521C531.619 262.624 530.562 260.744 529.499 258.869C527.587 255.496 525.625 252.151 523.606 248.841C518.068 239.762 512.031 231.036 505.652 222.532C503.913 220.214 502.126 217.916 500.541 215.487C498.758 212.753 497.214 209.89 495.353 207.197C492.428 202.963 489.306 198.776 485.739 195.055C484.417 193.676 482.984 192.258 481.324 191.286C479.42 190.171 477.995 190.489 476.007 191.322C471.105 193.378 468.285 197.174 466.876 202.184C466.439 203.737 466.155 205.467 465.308 206.73C464.77 207.532 463.537 208.558 463.056 209.739C462.636 210.769 462.848 212.015 462.349 212.987C461.843 213.97 460.773 214.686 460.196 215.671C459.68 216.552 459.276 217.578 459.229 218.608C459.114 221.105 461.23 222.209 463.468 221.827C465.02 221.562 466.381 220.707 467.95 220.492C469.689 220.254 471.453 220.571 473.091 221.161C476.548 222.406 479.188 225.107 482.945 225.647C484.264 225.837 485.717 225.836 486.938 225.227C486.254 225.048 485.57 224.868 484.886 224.689C491.357 235.762 496.875 247.442 501.472 259.414C501.796 260.259 502.119 261.105 502.423 261.958C503.038 261.343 503.653 260.728 504.268 260.113C497.383 259.1 490.469 258.263 483.553 257.5C470.666 256.078 457.692 254.899 444.719 254.803C438.778 254.759 432.694 254.852 426.856 256.07C424.966 256.466 425.766 259.358 427.653 258.964Z" fill="black"/>
<path d="M223.324 258.418C213.747 255.048 200.79 249.095 197.523 248.758C194.368 248.421 144.681 248.983 132.062 248.421C105.585 247.186 76.966 249.994 67.953 256.621C67.953 256.621 65.812 277.961 70.319 280.545C70.319 280.545 140.061 289.53 179.608 285.711C179.608 285.711 230.535 322.552 271.208 323.9C292.615 324.686 313.91 319.856 319.205 318.396C324.501 316.824 316.727 267.853 316.727 267.853" fill="white"/>
<path d="M223.723 256.971C218.01 254.951 212.428 252.583 206.801 250.34C203.785 249.138 200.465 247.445 197.169 247.232C191.876 246.891 186.494 247.137 181.194 247.146C165.102 247.173 148.957 247.547 132.872 246.953C119.585 246.462 106.284 246.517 93.0649 248.119C87.5839 248.783 82.0879 249.651 76.7709 251.167C74.6499 251.772 72.5609 252.494 70.5539 253.412C69.1699 254.045 66.7039 254.972 66.4529 256.624C66.1119 258.866 66.0959 261.218 66.0149 263.479C65.8729 267.446 65.8709 271.463 66.4809 275.396C66.8349 277.68 67.5959 281.589 70.3619 282.05C71.3819 282.22 72.4239 282.307 73.4509 282.43C89.1439 284.313 104.895 285.783 120.665 286.825C131.561 287.545 142.477 288.053 153.397 288.142C158.544 288.184 163.694 288.132 168.837 287.923C171.276 287.824 173.713 287.689 176.147 287.506C176.491 287.48 179.318 287.33 179.325 287.237C179.302 287.552 178.621 286.755 179.005 287.115C179.984 288.034 181.328 288.739 182.435 289.486C184.867 291.128 187.33 292.726 189.814 294.288C197.392 299.053 205.179 303.495 213.165 307.539C223.003 312.521 233.179 316.946 243.707 320.256C254.572 323.672 265.629 325.567 277.031 325.481C289.676 325.386 302.393 323.769 314.733 321.028C316.233 320.695 317.737 320.358 319.217 319.946C320.164 319.683 320.831 319.232 321.323 318.365C322.382 316.498 322.426 313.997 322.509 311.916C322.798 304.671 321.986 297.343 321.198 290.152C320.482 283.625 319.619 277.114 318.655 270.619C318.498 269.563 318.34 268.507 318.173 267.453C317.871 265.552 314.98 266.359 315.28 268.251C316.349 274.988 317.247 281.758 318.017 288.535C318.624 293.872 319.153 299.226 319.415 304.592C319.526 306.852 319.593 309.119 319.527 311.382C319.476 313.123 319.429 314.416 319.054 315.903C318.986 316.171 318.905 316.432 318.813 316.693C318.688 317.049 318.929 316.42 318.789 316.742C318.742 316.849 318.677 316.951 318.614 317.049C318.553 317.144 318.627 316.795 318.635 317.018C318.64 317.174 318.644 316.985 318.704 316.981C318.425 317.001 318.941 316.907 318.806 316.949C318.633 317.003 318.456 317.044 318.281 317.091C315.852 317.735 313.394 318.273 310.932 318.773C302.273 320.531 293.486 321.717 284.664 322.227C276.085 322.723 267.49 322.595 259.024 321.031C251.44 319.63 244.023 317.397 236.798 314.719C223.432 309.764 210.647 303.252 198.388 296.004C194.134 293.489 189.938 290.873 185.816 288.145C184.039 286.968 182.314 285.512 180.451 284.478C179.708 284.066 178.853 284.284 178.038 284.354C176.413 284.494 174.786 284.611 173.158 284.708C169.689 284.915 166.216 285.037 162.741 285.101C155.318 285.237 147.891 285.115 140.471 284.85C126.136 284.339 111.821 283.302 97.5399 281.976C88.9729 281.18 80.4129 280.288 71.8729 279.239C71.4149 279.183 70.8039 278.991 70.3419 279.048C70.2839 279.055 69.0399 278.78 70.6459 279.116C71.1079 279.213 70.9189 279.22 70.8459 279.062C70.7279 278.806 70.8239 279.082 70.6539 278.825C70.5269 278.633 70.4149 278.43 70.3139 278.223C69.9669 277.512 69.6789 276.309 69.5039 275.372C68.5639 270.324 68.8659 264.954 69.1969 259.857C69.2669 258.778 69.3449 257.698 69.4519 256.621C69.2039 257.053 68.9569 257.484 68.7089 257.916C72.5469 255.138 77.4929 253.939 82.0449 252.944C88.8449 251.458 95.7949 250.693 102.732 250.21C110.831 249.647 118.963 249.514 127.078 249.736C131.261 249.851 135.436 250.046 139.62 250.1C149.483 250.228 159.348 250.192 169.212 250.172C177.587 250.155 185.964 250.079 194.339 250.17C195.242 250.18 196.147 250.188 197.049 250.227C197.163 250.232 197.278 250.237 197.392 250.247C197.436 250.251 197.48 250.254 197.523 250.259C197.195 250.223 197.601 250.276 197.716 250.304C198.602 250.516 199.468 250.783 200.33 251.08C206.385 253.165 212.244 255.816 218.216 258.119C219.778 258.722 221.347 259.307 222.926 259.865C224.749 260.509 225.533 257.612 223.723 256.971Z" fill="black"/>
<path d="M222.981 262.236C213.404 259.091 200.334 253.363 197.18 253.026C194.025 252.689 144.338 253.026 131.719 252.352C105.242 251.004 76.6241 253.475 67.7231 259.765C67.7231 259.765 65.6951 279.758 70.2021 282.229C70.2021 282.229 139.945 291.102 179.492 287.62C179.492 287.62 192.561 295.707 212.729 308.062C220.729 312.892 243.375 326.595 276.387 326.483C297.794 326.483 314.695 326.483 319.99 325.023C325.286 323.675 316.385 271.446 316.385 271.446" fill="black"/>
<path d="M133.303 282.791C126.655 288.744 117.98 300.201 117.98 300.201L74.9399 282.791C74.9399 282.791 101.079 286.61 115.05 273.693C116.402 272.57 133.303 282.791 133.303 282.791Z" fill="white"/>
<path d="M132.242 281.73C126.43 286.971 121.404 293.217 116.684 299.444C117.249 299.214 117.813 298.984 118.378 298.755C113.52 296.79 108.661 294.825 103.803 292.859C96.0988 289.743 88.3938 286.626 80.6898 283.51C78.9058 282.788 77.1218 282.067 75.3378 281.345C75.0718 282.309 74.8058 283.274 74.5398 284.238C82.1018 285.335 90.0968 285.019 97.5678 283.512C103.53 282.309 109.392 280.1 114.226 276.343C114.385 276.219 115.918 275.054 115.87 274.975C115.877 274.987 115.263 275.132 115.335 275.11C115.6 275.029 115.403 275.109 115.351 275.094C116.004 275.276 116.634 275.469 117.262 275.735C119.063 276.497 121.018 277.542 122.818 278.513C126.106 280.288 129.349 282.154 132.546 284.087C134.203 285.088 135.712 282.495 134.06 281.497C131.366 279.869 128.637 278.294 125.883 276.771C123.863 275.654 121.827 274.554 119.734 273.579C118.439 272.975 116.852 272.087 115.369 272.109C114.2 272.126 113.48 273.125 112.637 273.803C111.439 274.766 110.142 275.609 108.804 276.363C106.17 277.846 103.345 278.932 100.437 279.744C95.1078 281.232 89.5608 281.804 84.0388 281.82C81.8728 281.826 79.7049 281.747 77.5449 281.569C76.9249 281.518 76.3048 281.459 75.6858 281.387C75.5118 281.367 75.3388 281.345 75.1648 281.323C74.9078 281.292 75.6268 281.388 75.3378 281.346C73.4238 281.069 72.7338 283.508 74.5398 284.239C79.3978 286.204 84.2568 288.169 89.1148 290.135C96.8188 293.251 104.524 296.368 112.228 299.484C114.012 300.206 115.796 300.927 117.58 301.649C118.242 301.917 118.902 301.451 119.274 300.96C119.405 300.788 119.536 300.616 119.668 300.445C119.834 300.23 119.589 300.547 119.713 300.387C119.793 300.284 119.873 300.181 119.953 300.078C120.167 299.804 120.38 299.531 120.595 299.258C121.813 297.711 123.051 296.18 124.311 294.667C127.455 290.891 130.708 287.149 134.362 283.854C135.8 282.556 133.673 280.44 132.242 281.73Z" fill="black"/>
<path d="M116.624 264.259L102.991 276.277C102.991 276.277 109.188 287.509 124.736 290.767L141.637 278.299L116.624 264.259Z" fill="white"/>
<path d="M115.563 263.198C111.019 267.204 106.474 271.21 101.93 275.216C101.427 275.659 101.387 276.478 101.695 277.034C104.8 282.626 110.729 287.057 116.435 289.623C117.768 290.222 119.131 290.758 120.522 291.206C121.261 291.444 122.009 291.658 122.761 291.849C123.61 292.065 124.658 292.5 125.492 292.063C126.051 291.77 126.569 291.269 127.075 290.896C129.927 288.792 132.778 286.689 135.63 284.585C137.885 282.922 140.139 281.259 142.394 279.595C143.26 278.956 143.459 277.603 142.394 277.005C135.086 272.903 127.779 268.801 120.471 264.7C119.441 264.122 118.411 263.544 117.381 262.965C115.695 262.019 114.181 264.609 115.867 265.555C123.175 269.657 130.482 273.759 137.79 277.86C138.82 278.438 139.85 279.016 140.88 279.595C140.88 278.732 140.88 277.868 140.88 277.005C135.246 281.161 129.613 285.317 123.979 289.473C124.364 289.423 124.75 289.372 125.135 289.322C119.142 288.033 113.517 285.343 109.004 281.158C107.121 279.412 105.487 277.685 104.286 275.521C104.208 276.127 104.13 276.733 104.051 277.339C108.595 273.333 113.14 269.327 117.684 265.321C119.136 264.04 117.007 261.925 115.563 263.198Z" fill="black"/>
<path d="M121.468 266.73L106.032 279.983C106.032 279.983 112.792 287.733 126.425 290.878L141.41 278.299L121.468 266.73Z" fill="black"/>
<path d="M131.701 291.938C131.341 289.757 130.997 287.451 129.569 285.674C127.915 283.617 125.25 283.457 122.795 283.29C118.761 283.015 114.896 283.716 111.245 285.437C110.167 285.945 108.825 286.702 107.945 287.028C106.889 287.42 106.108 287.562 105.21 287.349C104.579 287.2 104.027 286.97 103.462 286.66C103.083 286.452 102.718 286.221 102.361 285.979C102.182 285.857 102.011 285.716 101.827 285.602C101.702 285.511 101.579 285.419 101.458 285.323C101.637 285.521 101.734 285.747 101.75 286.001C102.011 286.186 101.514 286.194 101.778 286.002C101.797 285.988 101.923 285.675 101.825 285.87C101.999 285.523 102.176 285.179 102.36 284.838C102.779 284.061 103.196 283.287 103.545 282.476C104.398 280.496 104.831 278.313 103.919 276.27C103.083 274.399 101.225 273.045 99.4011 272.209C96.4281 270.847 93.6811 271.564 91.1921 273.511C88.6941 275.465 86.5971 277.835 83.7281 279.288C79.2481 281.558 74.3581 280.594 69.6391 279.766C67.2301 279.343 64.5501 278.713 62.1091 279.247C60.7561 279.543 59.3831 280.327 58.1951 281.024C55.7381 282.467 53.3681 284.455 52.2921 287.165C51.0491 290.294 52.2071 293.457 54.2291 295.957C57.8541 300.438 63.6251 303.341 68.7921 305.61C73.0501 307.481 77.5601 308.923 82.2501 308.994C85.1141 309.037 88.0171 308.376 90.6841 308.151C91.7931 308.057 93.0471 308.015 94.0221 308.243C94.2191 308.289 95.1221 308.629 94.7661 308.47C95.1721 308.651 95.5621 308.863 95.9481 309.082C98.1721 310.348 100.328 311.607 102.723 312.542C107.281 314.32 112.182 315.126 117.026 315.636C122.15 316.176 127.762 316.459 132.568 314.257C135.247 313.03 137.417 310.761 138.092 307.842C138.92 304.26 137.714 300.798 134.91 298.407C133.967 297.603 132.925 296.85 131.801 296.318C132.031 296.617 132.261 296.916 132.49 297.214C132.227 295.458 131.964 293.698 131.701 291.938C131.417 290.035 128.525 290.844 128.808 292.735C129.003 294.038 129.198 295.342 129.392 296.645C129.457 297.079 129.458 297.595 129.597 298.014C129.829 298.715 130.315 298.905 130.88 299.224C132.37 300.064 133.813 301.196 134.678 302.696C135.077 303.388 135.292 304.13 135.34 304.924C135.355 305.167 135.361 305.41 135.357 305.653C135.354 305.853 135.293 306.579 135.312 306.446C134.959 308.895 133.378 310.664 130.975 311.705C126.186 313.778 120.307 313.073 115.304 312.439C111.028 311.898 106.659 311.031 102.685 309.309C100.643 308.424 98.8251 307.182 96.8581 306.162C92.2851 303.791 87.0301 306.066 82.2481 305.994C77.6801 305.926 73.2341 304.396 69.1311 302.489C66.1451 301.101 63.2061 299.53 60.5141 297.627C58.7781 296.4 57.0251 294.945 55.8591 293.142C54.3761 290.849 54.4491 288.629 55.9981 286.668C57.5331 284.725 60.0211 283.155 62.2811 282.318C64.1941 281.61 66.8451 282.308 68.8401 282.658C71.5891 283.14 74.3791 283.73 77.1811 283.744C81.2301 283.764 84.9911 282.428 88.1981 279.986C90.4031 278.307 92.3351 275.758 94.8871 274.7C95.7391 274.347 96.7371 274.335 97.8591 274.79C99.3211 275.384 101.183 276.576 101.425 278.267C101.67 279.976 100.649 281.693 99.8721 283.132C99.2631 284.26 98.2351 285.804 99.0421 287.084C99.5221 287.844 100.608 288.441 101.357 288.906C102.057 289.341 102.8 289.71 103.575 289.993C104.827 290.45 106.161 290.543 107.467 290.29C109.956 289.808 112.093 288.167 114.457 287.316C116.186 286.694 117.983 286.338 119.818 286.252C121.052 286.194 122.29 286.236 123.52 286.35C124.621 286.452 126.008 286.448 126.895 287.191C128.376 288.432 128.515 290.973 128.806 292.736C129.122 294.636 132.014 293.83 131.701 291.938Z" fill="black"/>
<path d="M315.148 259.766C300.501 255.948 222.422 189.455 198.423 189.679C185.466 189.791 117.189 254.6 115.048 264.259C112.907 273.694 130.709 283.353 139.497 281.332C145.694 279.872 192.902 247.748 201.24 240.56C201.24 240.56 227.379 260.216 236.167 279.31C242.927 294.024 256.56 307.278 274.7 308.288" fill="white"/>
<path d="M315.547 258.32C315.064 258.192 314.184 257.864 314.011 257.791C314.219 257.878 313.748 257.675 313.672 257.64C313.523 257.572 313.375 257.504 313.227 257.434C312.835 257.249 312.447 257.055 312.062 256.856C310.294 255.942 308.581 254.922 306.889 253.874C302.164 250.949 297.587 247.784 293.033 244.603C280.891 236.121 268.94 227.37 256.771 218.926C244.904 210.691 232.874 202.491 220.091 195.725C215.377 193.23 210.49 190.851 205.361 189.334C202.149 188.384 198.65 187.63 195.412 188.815C191.501 190.246 187.939 192.667 184.545 195.032C179.471 198.567 174.615 202.422 169.851 206.362C158.707 215.582 148.026 225.387 137.731 235.543C133.212 240.001 128.765 244.538 124.489 249.231C121.437 252.58 118.385 256.001 115.79 259.724C115.017 260.833 114.261 261.99 113.788 263.264C112.821 265.868 113.588 268.871 114.947 271.183C116.942 274.576 120.234 277.173 123.606 279.101C127.131 281.116 131.061 282.566 135.111 283.001C137.477 283.255 139.684 283.007 141.835 282.026C143.612 281.215 145.315 280.231 147.002 279.25C152.569 276.016 157.984 272.516 163.369 268.991C175.047 261.348 186.678 253.534 197.833 245.138C199.346 243.999 200.863 242.854 202.301 241.619C201.695 241.697 201.089 241.775 200.483 241.854C200.52 241.882 200.585 241.913 200.609 241.95C200.643 242.001 200.727 242.019 200.764 242.068C200.964 242.333 200.709 242.025 200.801 242.096C201.3 242.485 201.798 242.876 202.292 243.272C204.103 244.721 205.884 246.21 207.637 247.729C212.973 252.352 218.085 257.258 222.775 262.539C225.353 265.441 227.8 268.462 230.002 271.661C232.121 274.739 233.828 277.964 235.464 281.314C238.87 288.287 243.702 294.7 249.691 299.658C256.821 305.56 265.428 309.225 274.7 309.787C276.628 309.904 276.621 306.903 274.7 306.787C258.551 305.809 245.417 294.433 238.362 280.422C236.685 277.092 235.074 273.823 232.983 270.722C230.839 267.542 228.455 264.52 225.947 261.62C221.297 256.242 216.19 251.262 210.855 246.568C207.985 244.042 205.053 241.566 201.997 239.265C201.443 238.848 200.645 239.099 200.179 239.5C196.764 242.434 192.944 245.073 189.124 247.797C183.324 251.934 177.455 255.976 171.548 259.958C165.505 264.032 159.422 268.05 153.253 271.932C149.132 274.524 144.979 277.245 140.565 279.323C140.422 279.391 140.277 279.456 140.133 279.522C139.752 279.695 140.052 279.561 139.975 279.591C139.742 279.681 139.51 279.773 139.27 279.841C137.945 280.217 136.465 280.154 135.111 280.003C131.255 279.571 127.468 277.988 124.191 275.96C121.241 274.135 118.096 271.591 116.835 268.24C116.393 267.066 116.188 265.726 116.533 264.5C116.584 264.319 116.652 264.146 116.718 263.97C116.528 264.478 116.852 263.709 116.944 263.534C118.645 260.302 120.87 257.889 123.255 255.128C127.024 250.765 131.005 246.585 135.047 242.476C144.939 232.421 155.268 222.772 165.955 213.567C170.81 209.386 175.746 205.285 180.855 201.416C184.76 198.459 188.765 195.535 193.076 193.19C193.844 192.772 194.625 192.382 195.423 192.023C195.781 191.862 195.355 192.044 195.65 191.925C195.803 191.864 195.955 191.803 196.109 191.745C196.452 191.617 196.8 191.498 197.153 191.4C197.408 191.329 197.664 191.275 197.922 191.219C198.34 191.128 197.892 191.211 197.991 191.204C198.123 191.196 198.255 191.181 198.388 191.179C198.762 191.174 199.136 191.186 199.509 191.211C199.72 191.225 199.931 191.245 200.142 191.265C200.228 191.273 200.315 191.284 200.401 191.294C200.695 191.328 200.206 191.261 200.596 191.32C205.033 191.985 209.29 193.778 213.315 195.674C225.553 201.44 236.952 209.041 248.122 216.618C260.473 224.996 272.553 233.761 284.72 242.4C289.769 245.985 294.83 249.559 299.986 252.989C303.548 255.359 307.154 257.748 310.984 259.669C312.19 260.274 313.442 260.864 314.75 261.212C316.617 261.709 317.414 258.816 315.547 258.32Z" fill="black"/>
<path d="M314.919 262.235C300.272 258.528 221.967 194.956 197.968 195.068C185.011 195.068 116.621 263.583 117.184 272.905C117.748 280.655 130.705 283.8 139.493 282.003C145.69 280.655 193.011 247.297 201.348 240.445C201.348 240.445 227.375 262.235 236.163 280.543C243.036 294.583 256.669 307.163 274.808 308.286" fill="black"/>
<path d="M415.762 213.266C415.762 213.266 415.537 209.784 419.705 204.618C419.705 204.618 434.127 195.183 429.62 190.578C426.691 187.545 419.705 193.049 419.705 193.049L418.241 190.578C421.17 187.882 425.001 176.425 424.1 174.741C421.733 171.483 422.635 163.509 424.212 161.038C424.776 160.251 426.015 160.364 426.24 161.262C426.916 163.284 429.282 166.092 429.282 166.092C429.508 157.78 432.888 153.175 434.578 151.041C436.155 149.132 438.071 147.447 439.535 146.436C440.211 145.875 441.225 146.548 441.113 147.335C440.887 148.795 440.324 152.389 440.324 154.411C440.437 159.914 443.028 162.61 443.028 162.61C443.028 162.61 444.155 157.219 447.985 153.962C448.211 153.737 448.661 153.849 448.774 154.186C449.112 156.32 447.76 163.172 452.041 164.07C452.041 164.07 453.281 159.128 454.971 159.016C455.534 159.016 457.45 160.925 459.59 164.183C463.083 169.237 467.026 169.686 472.322 177.324C481.223 190.128 475.139 210.346 460.604 216.86C440.324 225.958 437.732 230.788 437.732 230.788C437.732 230.788 418.353 221.241 415.762 213.266Z" fill="white"/>
<path d="M417.262 213.266C417.251 213.058 417.271 212.848 417.292 212.641C417.261 212.955 417.371 212.221 417.396 212.108C417.485 211.707 417.6 211.313 417.732 210.924C418.048 209.989 418.492 209.108 418.99 208.257C419.425 207.515 419.956 206.426 420.542 205.86C421.092 205.328 421.884 204.931 422.5 204.475C423.694 203.59 424.864 202.668 425.985 201.692C428.253 199.716 430.734 197.343 431.702 194.412C432.709 191.363 430.703 188.262 427.419 188.168C424.248 188.078 421.058 190.098 418.645 191.988C419.43 192.089 420.216 192.19 421.001 192.292C420.513 191.468 420.025 190.645 419.537 189.821C419.459 190.427 419.381 191.033 419.303 191.639C421.056 189.961 422.1 187.523 423.024 185.328C424.072 182.838 425.011 180.232 425.498 177.567C425.666 176.649 425.858 175.635 425.654 174.705C425.428 173.677 424.713 172.823 424.466 171.761C423.815 168.967 424.082 165.723 424.965 163.005C425.04 162.775 425.18 162.531 425.232 162.298C425.249 162.221 425.371 162.11 425.368 162.035C425.367 161.994 424.869 161.58 424.794 161.662C424.603 161.872 425.776 163.752 425.918 163.984C426.597 165.096 427.386 166.156 428.222 167.154C429.104 168.208 430.741 167.294 430.783 166.093C430.956 161.06 432.506 155.998 435.592 152.163C436.657 150.839 437.896 149.63 439.208 148.553C439.389 148.405 440.104 148.037 440.162 147.825C440.206 147.794 440.25 147.763 440.293 147.732C440.074 147.538 439.854 147.343 439.635 147.149C439.585 147.186 439.604 147.455 439.579 147.515C439.342 148.084 439.367 148.937 439.283 149.547C438.863 152.62 438.592 155.62 439.413 158.66C439.89 160.424 440.692 162.32 441.968 163.672C442.716 164.464 444.24 164.11 444.475 163.01C444.748 161.733 445.229 160.476 445.811 159.312C446.395 158.145 447.092 157.022 447.976 156.058C448.174 155.842 448.475 155.642 448.627 155.4C449.007 154.795 447.46 153.923 447.318 154.63C447.25 154.969 447.336 155.425 447.334 155.775C447.307 159.387 447.258 164.447 451.642 165.518C452.417 165.707 453.282 165.275 453.487 164.47C453.752 163.429 454.091 162.373 454.596 161.423C454.731 161.168 454.946 160.92 455.064 160.665C455.094 160.6 455.257 160.447 455.265 160.464C455.256 160.468 455.247 160.472 455.239 160.476C455.01 160.589 454.76 160.564 454.486 160.401C454.482 160.517 455.799 161.628 455.944 161.793C457.438 163.492 458.528 165.493 460.056 167.164C461.246 168.466 462.631 169.557 463.996 170.666C467.366 173.403 470.438 176.585 472.468 180.463C474.219 183.808 475.002 187.596 474.976 191.357C474.924 199.004 471.572 206.621 465.844 211.708C462.367 214.796 457.984 216.346 453.866 218.369C450.269 220.136 446.714 222.021 443.346 224.197C441.417 225.443 439.485 226.784 437.832 228.388C437.336 228.87 436.771 229.419 436.437 230.032C437.121 229.853 437.805 229.673 438.489 229.494C435.166 227.854 431.941 225.97 428.833 223.956C426.325 222.331 423.874 220.594 421.654 218.587C419.91 217.011 417.986 215.151 417.209 212.868C416.59 211.051 413.691 211.831 414.316 213.666C415.765 217.921 419.685 221.053 423.154 223.655C426.7 226.314 430.511 228.628 434.404 230.739C435.254 231.2 436.108 231.656 436.976 232.084C437.685 232.434 438.619 232.298 439.028 231.546C439.139 231.343 439.354 231.126 439.043 231.496C439.333 231.152 439.631 230.823 439.954 230.509C441.488 229.02 443.017 227.978 444.861 226.787C448.524 224.421 452.405 222.393 456.328 220.497C460.731 218.369 465.064 216.621 468.655 213.195C474.667 207.46 478.104 199.034 477.975 190.741C477.911 186.65 476.961 182.58 475.06 178.948C472.872 174.768 469.534 171.309 465.898 168.365C464.268 167.045 462.624 165.717 461.334 164.046C459.781 162.033 458.512 159.575 456.387 158.071C453.116 155.757 451.179 161.38 450.595 163.672C451.21 163.323 451.825 162.974 452.44 162.624C450.515 162.154 450.384 159.831 450.332 158.175C450.282 156.588 450.941 153.573 449.286 152.626C446.796 151.2 444.182 155.912 443.291 157.657C442.561 159.085 441.919 160.637 441.582 162.212C442.418 161.991 443.253 161.771 444.089 161.55C443.988 161.443 443.865 161.216 444.011 161.474C443.808 161.114 443.536 160.788 443.331 160.424C442.672 159.256 442.273 157.968 442.032 156.652C441.712 154.902 441.842 153.149 442.044 151.394C442.202 150.019 442.71 148.429 442.604 147.047C442.467 145.273 440.457 144.199 438.91 145.063C437.34 145.94 435.903 147.383 434.675 148.675C433.018 150.42 431.585 152.419 430.514 154.576C428.729 158.171 427.918 162.095 427.78 166.091C428.634 165.737 429.487 165.384 430.341 165.03C429.597 164.142 428.919 163.183 428.336 162.183C427.528 160.798 427.205 159.017 425.228 159.017C422.014 159.017 421.516 163.983 421.273 166.305C421.092 168.042 421.116 169.789 421.376 171.517C421.485 172.242 421.641 172.96 421.89 173.65C422.009 173.981 422.144 174.312 422.297 174.629C422.371 174.783 422.449 174.936 422.535 175.083C422.54 175.091 422.946 175.642 422.76 175.397C422.716 175.339 422.748 175.149 422.731 175.409C422.719 175.582 422.729 175.759 422.718 175.933C422.687 176.411 422.583 176.907 422.469 177.429C422.171 178.795 421.762 180.138 421.307 181.459C420.385 184.135 419.28 187.505 417.18 189.515C416.704 189.971 416.612 190.77 416.945 191.333C417.433 192.157 417.921 192.98 418.409 193.804C418.948 194.714 420.015 194.695 420.765 194.108C420.192 194.557 420.956 193.974 421.11 193.865C421.618 193.506 422.141 193.168 422.675 192.85C423.901 192.121 425.279 191.383 426.715 191.194C427.818 191.049 428.748 191.488 428.958 192.347C428.992 192.487 428.981 192.992 428.91 193.268C428.762 193.846 428.504 194.336 428.192 194.846C426.751 197.207 424.494 199.111 422.359 200.824C421.071 201.857 419.42 202.694 418.34 203.939C416.333 206.252 414.088 210.03 414.262 213.263C414.365 215.186 417.366 215.198 417.262 213.266Z" fill="black"/>
<path d="M415.76 213.266C415.76 213.266 415.76 209.559 419.703 204.617C419.703 204.617 433.9 194.958 429.618 190.577C426.914 187.769 419.703 193.048 419.703 193.048L418.239 190.577C420.943 187.994 424.661 175.751 424.661 175.751C422.407 172.606 423.196 163.957 423.196 163.957C424.435 168.113 428.491 169.686 428.491 169.686C428.717 161.823 433.674 152.276 433.674 152.276C433.674 152.276 432.773 156.095 436.266 162.947C437.618 165.53 442.913 169.573 442.913 169.573C442.913 169.573 443.026 167.439 443.702 165.979C444.265 164.519 445.617 162.834 445.617 162.834C445.617 162.834 449.335 168.226 451.814 168.787C451.814 168.787 453.617 164.07 455.194 163.957C455.194 163.957 455.645 166.316 459.476 170.135C463.644 174.291 464.32 173.168 469.278 180.356C478.517 193.834 474.461 210.57 460.715 216.748C441.561 225.396 437.843 230.675 437.843 230.675C437.843 230.675 418.239 220.791 415.76 213.266Z" fill="black"/>
<path d="M503.866 261.563C503.866 261.563 508.936 268.19 520.992 268.19L503.866 261.563Z" fill="white"/>
<path d="M502.571 262.32C503.79 263.902 505.449 265.154 507.151 266.171C511.312 268.656 516.184 269.667 520.992 269.689C522.923 269.698 522.925 266.698 520.992 266.689C516.698 266.669 512.382 265.8 508.665 263.581C508.065 263.223 507.485 262.833 506.926 262.413C506.723 262.26 507.054 262.527 506.747 262.27C506.66 262.197 506.572 262.127 506.486 262.053C506.295 261.891 506.107 261.725 505.924 261.554C505.672 261.319 505.427 261.076 505.197 260.82C505.07 260.679 504.673 260.173 505.161 260.807C504.668 260.166 503.871 259.823 503.109 260.269C502.478 260.637 502.073 261.674 502.571 262.32Z" fill="black"/>
<path d="M132.508 281.218L126.086 286.048L127.438 287.508L133.409 283.015C134.423 283.352 136.564 282.79 139.606 281.667C156.056 275.489 174.533 259.765 174.533 259.765C148.394 278.971 132.508 281.218 132.508 281.218Z" fill="white"/>
<path d="M419.703 244.715C408.436 239.66 411.14 229.664 406.746 224.385C394.916 210.12 384.1 207.986 373.509 206.638C366.411 205.74 347.595 208.211 347.595 208.211C347.595 208.211 340.384 209.446 335.99 221.352C331.596 233.146 338.581 239.211 340.835 238.649C342.074 238.425 348.045 235.729 348.045 235.729C333.06 243.704 313.907 239.773 308.048 247.635C308.048 247.635 301.738 246.624 301.738 250.218C301.738 250.218 308.273 250.892 307.485 266.842C307.034 276.389 306.132 284.925 305.569 296.606C304.893 312.443 318.526 330.414 314.019 334.233C314.019 334.233 347.595 320.418 369.453 314.24C397.507 306.378 423.308 298.291 423.308 298.291C423.308 298.291 442.012 295.371 451.701 292.226C472.094 285.599 463.531 263.921 457.335 258.53C452.152 254.037 442.575 253.139 428.604 244.602C428.717 244.715 425.562 247.41 419.703 244.715Z" fill="white"/>
<path d="M417.679 240.559C412.045 237.077 411.144 232.023 409.341 228.541C405.285 220.903 386.807 212.142 376.104 210.795C369.006 209.896 342.754 212.03 342.754 212.03C342.754 212.03 338.247 213.827 335.205 223.599C331.712 234.831 339.712 238.65 339.712 238.65C339.937 239.885 298.587 244.153 310.981 248.758C321.91 252.802 321.685 281.893 324.389 280.994C324.389 280.994 320.107 282.342 317.741 271.784C314.812 258.418 305.235 244.603 300.728 251.679C300.728 251.679 308.052 252.24 307.263 268.302C306.812 277.849 305.911 286.61 305.348 298.291C304.672 314.128 318.417 330.527 313.798 334.233C313.798 334.233 345.458 320.868 367.316 314.802C395.37 306.94 423.087 298.404 423.087 298.404C423.087 298.404 439.875 295.596 449.677 292.9C473.901 286.161 461.169 260.889 454.184 256.621C442.804 249.882 435.255 250.893 428.495 244.715C428.72 244.715 423.2 243.929 417.679 240.559Z" fill="#FF6900"/>
<path d="M422.374 241.398C419.531 240.097 416.912 238.406 414.916 235.966C413.439 234.16 412.425 232.028 411.483 229.909C410.611 227.948 409.774 225.951 408.497 224.211C406.348 221.284 403.685 218.611 400.946 216.237C392.732 209.116 382.107 205.37 371.272 204.972C366.286 204.789 361.257 205.258 356.299 205.737C353.338 206.023 350.333 206.257 347.394 206.738C345.017 207.127 342.775 208.762 341.072 210.369C336.689 214.505 333.77 220.877 333.158 226.827C332.704 231.242 333.962 236.378 337.717 239.113C338.821 239.917 340.091 240.384 341.451 240.044C343.448 239.546 345.398 238.524 347.275 237.701C347.784 237.478 348.293 237.253 348.8 237.024C348.295 236.161 347.791 235.297 347.286 234.434C339.935 238.291 331.624 239.267 323.518 240.374C317.704 241.168 310.6 241.866 306.751 246.878C307.183 246.63 307.614 246.383 308.046 246.135C304.7 246.303 299.506 247.415 299.335 251.566C299.304 252.319 300.05 253.145 300.835 253.066C300.967 253.053 301.099 253.065 301.232 253.069C301.615 253.08 300.899 252.961 301.315 253.082C301.52 253.142 301.728 253.189 301.933 253.252C302.227 253.343 301.93 253.242 301.968 253.26C302.076 253.311 302.188 253.359 302.29 253.421C302.495 253.545 302.933 253.842 302.809 253.741C303.439 254.248 303.758 254.657 304.132 255.269C305.41 257.366 305.799 259.958 305.954 262.367C306.211 266.354 305.813 270.391 305.541 274.37C305.264 278.425 304.945 282.476 304.666 286.531C304.377 290.724 303.865 295.021 304.085 299.224C304.455 306.292 307.016 313.022 309.693 319.494C310.91 322.437 312.242 325.36 313.194 328.403C313.52 329.445 313.835 330.52 313.858 331.532C313.87 332.055 313.899 332.062 313.766 332.453C313.71 332.616 313.695 332.699 313.408 332.949C312.324 333.894 313.475 336.027 314.867 335.456C326.418 330.718 338.105 326.275 349.883 322.135C359.13 318.884 368.474 316.102 377.895 313.41C388.383 310.414 398.845 307.324 409.285 304.164C412.669 303.14 416.05 302.107 419.429 301.065C420.831 300.632 422.239 300.095 423.666 299.75C425.065 299.413 426.543 299.275 427.962 299.03C431.798 298.367 435.626 297.651 439.437 296.853C443.471 296.008 447.512 295.105 451.449 293.879C455.16 292.723 458.77 290.967 461.463 288.096C465.954 283.309 466.771 276.589 465.343 270.39C464.221 265.521 461.779 260.091 457.746 256.941C455.241 254.984 452.234 253.807 449.299 252.657C445.126 251.021 440.948 249.431 436.919 247.457C434.336 246.191 431.819 244.8 429.361 243.306C428.104 242.543 426.489 244.086 427.309 245.358C427.037 244.2 427.299 243.5 428.096 243.258C428.065 243.268 428.034 243.277 428.002 243.283C428.042 243.091 428.453 243.338 428.019 243.257C427.622 243.183 427.73 243.257 427.186 243.136C425.521 242.768 423.923 242.089 422.374 241.398C420.626 240.618 419.098 243.202 420.86 243.988C422.999 244.943 425.404 246.136 427.799 246.248C429.028 246.305 430.88 245.369 429.899 243.845C429.215 244.529 428.531 245.213 427.847 245.897C432.381 248.651 437.124 250.988 442.029 253.005C445.424 254.402 448.936 255.558 452.255 257.134C454.442 258.173 456.403 259.425 457.918 261.336C459.305 263.086 460.535 265.404 461.363 267.601C463.354 272.882 463.965 279.154 460.795 284.114C456.721 290.488 448.111 291.877 441.296 293.388C437.352 294.262 433.384 295.03 429.407 295.742C427.29 296.121 425.116 296.36 423.017 296.827C422.14 297.022 421.278 297.353 420.42 297.619C417.665 298.472 414.908 299.318 412.149 300.159C402.482 303.104 392.796 305.986 383.089 308.794C373.442 311.585 363.77 314.224 354.258 317.454C340.964 321.967 327.824 326.973 314.819 332.258C314.57 332.359 314.322 332.46 314.074 332.562C314.56 333.398 315.047 334.233 315.533 335.069C317.046 333.75 316.984 331.601 316.655 329.797C316.179 327.186 315.067 324.677 314.062 322.238C311.303 315.548 308.212 308.755 307.291 301.507C306.743 297.198 307.254 292.793 307.538 288.48C307.821 284.168 308.159 279.86 308.462 275.549C308.756 271.364 309.19 267.115 308.987 262.918C308.846 259.99 308.411 256.952 307.043 254.32C305.923 252.165 303.512 249.798 300.839 250.066C301.339 250.566 301.839 251.066 302.339 251.566C302.413 249.776 306.159 249.326 307.272 249.202C307.518 249.175 307.771 249.172 308.015 249.137C308.865 249.016 309.168 248.555 309.713 247.976C310.584 247.052 311.655 246.383 312.802 245.854C315.833 244.457 319.314 243.984 322.586 243.51C326.622 242.924 330.678 242.472 334.687 241.706C339.582 240.771 344.377 239.347 348.804 237.024C350.541 236.112 349.016 233.655 347.29 234.434C345.876 235.072 344.455 235.696 343.019 236.281C342.239 236.599 341.456 236.886 340.658 237.152C340.26 237.285 340.844 237.242 340.48 237.185C340.786 237.233 340.037 237.047 340.249 237.134C337.024 235.808 335.947 231.104 336.086 227.871C336.325 222.334 339.225 216.182 343.287 212.406C344.334 211.433 345.515 210.616 346.822 210.029C347.206 209.857 346.545 210.132 346.905 209.995C347.001 209.959 347.096 209.919 347.193 209.888C347.343 209.839 347.499 209.797 347.647 209.743C347.837 209.674 348.406 209.584 347.614 209.71C350.437 209.261 353.317 209.028 356.16 208.752C360.89 208.292 365.665 207.87 370.422 207.951C374.772 208.025 379.24 208.837 383.421 210.007C388.601 211.456 393.421 213.943 397.603 217.333C400.622 219.781 403.567 222.617 405.91 225.727C407.257 227.514 408.094 229.632 409.001 231.66C410.028 233.957 411.191 236.141 412.799 238.09C414.95 240.697 417.812 242.595 420.864 243.991C422.603 244.786 424.129 242.201 422.374 241.398Z" fill="black"/>
<path d="M425.961 299.401C429.855 298.188 433.653 296.408 437.198 294.41C443.47 290.875 449.69 285.987 452.601 279.205C454.443 274.915 454.624 270.252 453.373 265.769C452.855 263.912 449.96 264.701 450.48 266.566C454.465 280.855 440.052 290.559 428.899 295.121C427.672 295.623 426.431 296.113 425.164 296.508C423.326 297.081 424.11 299.978 425.961 299.401Z" fill="black"/>
<path d="M40.5702 253.25C47.4432 258.754 49.0201 264.482 48.2311 269.424C47.1041 276.837 40.9072 282.341 24.1202 280.881C6.99416 279.421 14.3182 265.156 9.81116 256.058C4.85417 245.837 4.74115 228.091 14.4302 228.877C19.3882 229.326 27.5002 242.692 40.5702 253.25Z" fill="white"/>
<path d="M34.1512 247.523C38.5452 250.219 49.6992 259.317 48.2352 269.425C47.2212 276.839 40.9122 282.342 24.1242 280.882C6.99822 279.422 14.3222 265.157 9.81523 256.059C4.85823 245.838 3.05521 231.012 12.7442 231.798C16.1242 232.135 19.9552 238.875 34.1512 247.523Z" fill="#FF6900"/>
<path d="M17.4739 251.566C17.4739 251.566 26.2619 247.073 41.3599 253.925C41.3599 253.925 47.7819 261.226 46.3169 259.765C36.8529 250.106 21.0789 253.251 16.2339 256.283L17.4739 251.566Z" fill="white"/>
<path d="M39.5089 254.311C43.9939 257.957 47.6679 262.961 46.7849 269.026C46.3069 272.304 44.6419 275.141 41.7919 276.892C37.3939 279.595 31.7539 279.788 26.7509 279.558C22.4429 279.36 17.1459 278.882 14.8539 274.638C13.1289 271.444 13.3369 267.437 13.0689 263.925C12.9169 261.935 12.7009 259.919 12.1499 257.995C11.5459 255.887 10.4319 253.97 9.75092 251.883C8.28392 247.382 7.53791 242.372 8.21091 237.653C8.68091 234.353 10.0639 230.396 13.9639 230.354C14.4709 230.349 14.3029 230.324 14.8509 230.503C14.9859 230.547 15.3579 230.723 15.6669 230.905C16.4589 231.37 17.1619 231.958 17.8429 232.571C19.8669 234.394 21.6859 236.445 23.5139 238.46C28.5659 244.029 33.6569 249.556 39.5089 254.311C40.9949 255.518 43.1299 253.408 41.6299 252.19C35.9129 247.545 30.9129 242.165 25.9769 236.719C24.1709 234.726 22.3759 232.705 20.4109 230.864C19.0319 229.572 17.4799 228.199 15.6449 227.61C11.3369 226.226 7.65591 229.551 6.21591 233.304C4.35991 238.142 4.79692 243.881 5.83792 248.849C6.39492 251.508 7.23792 254.105 8.39392 256.564C9.24492 258.373 9.6979 260.292 9.9169 262.276C10.3709 266.406 10.0569 270.824 11.6209 274.75C13.5519 279.598 18.0669 281.653 23.0049 282.266C29.0559 283.017 35.8439 282.951 41.5059 280.425C45.2319 278.762 48.0769 275.71 49.2449 271.778C50.8699 266.306 49.3319 260.734 45.8359 256.345C44.6009 254.795 43.1649 253.439 41.6299 252.191C40.1449 250.982 38.0099 253.092 39.5089 254.311Z" fill="black"/>
<path d="M463.274 214.561C465.34 213.312 468.224 212.727 470.786 212.287C472.137 212.055 473.5 211.894 474.87 211.834C475.471 211.808 476.073 211.8 476.674 211.833C476.817 211.841 476.96 211.853 477.103 211.864C477.15 211.867 477.591 211.933 477.227 211.874C477.452 211.911 477.673 211.956 477.893 212.018C479.755 212.54 480.55 209.647 478.691 209.125C476.015 208.374 472.869 208.914 470.193 209.36C467.363 209.832 464.249 210.467 461.761 211.971C460.11 212.968 461.616 215.564 463.274 214.561Z" fill="black"/>
<path d="M129.921 290.766C129.47 288.071 129.245 285.824 125.752 285.15C109.077 282.455 109.641 293.687 100.289 286.386C99.0501 285.375 113.922 276.165 108.739 271.897C104.232 268.302 100.965 271.784 98.3741 272.908C94.2051 274.817 85.6421 277.063 76.2911 278.748C66.1511 280.545 56.2361 280.096 55.2221 285.263C54.9971 288.52 56.3491 292.9 64.6861 297.73C73.5871 302.785 79.7841 301.774 93.6421 301.549C107.839 301.324 116.514 306.379 125.077 304.357C128.119 303.683 131.387 302.56 131.387 299.977C131.273 299.527 129.921 290.766 129.921 290.766Z" fill="white"/>
<path d="M131.367 290.367C131.077 288.618 130.792 286.775 129.526 285.428C128.039 283.846 125.813 283.597 123.771 283.385C120.25 283.019 116.622 283.258 113.284 284.498C111.236 285.259 109.191 286.587 107.322 287.158C106.538 287.398 105.83 287.471 105.132 287.317C103.871 287.039 102.765 286.351 101.723 285.6C101.63 285.533 101.355 285.277 101.275 285.268C102.674 285.428 101.523 286.137 101.673 286.534C101.721 286.66 101.459 286.736 101.709 286.533C101.558 286.655 101.695 286.539 101.86 286.367C102.026 286.195 102.189 286.021 102.359 285.853C103.221 284.997 104.14 284.198 105.03 283.372C107.056 281.494 109.279 279.459 110.543 276.96C111.965 274.151 111.263 271.585 108.548 269.941C106.647 268.79 104.398 268.502 102.292 269.237C100.621 269.82 99.2092 270.878 97.6152 271.614C93.6992 273.421 89.3132 274.417 85.1352 275.396C79.6532 276.681 74.1392 277.648 68.5532 278.336C64.6402 278.818 59.9212 278.99 56.4962 281.182C53.8302 282.888 53.2592 285.687 54.0612 288.6C55.0542 292.207 57.9232 294.935 60.8622 297.055C64.2072 299.467 68.0452 301.367 72.0682 302.328C80.7232 304.393 89.7832 302.588 98.5562 303.178C103.173 303.488 107.682 304.43 112.216 305.296C115.879 305.996 119.645 306.642 123.378 306.169C126.721 305.745 133.023 304.447 132.885 299.978C132.857 299.069 132.58 298.111 132.437 297.216C132.195 295.697 131.957 294.177 131.721 292.656C131.603 291.893 131.485 291.13 131.367 290.367C131.073 288.465 128.182 289.273 128.474 291.164C128.803 293.296 129.134 295.427 129.472 297.557C129.606 298.4 129.964 299.438 129.921 300.292C129.912 300.463 129.882 300.153 129.878 300.17C129.845 300.306 129.81 300.478 129.726 300.602C129.531 300.888 129.311 301.121 129.028 301.329C128.189 301.947 127.13 302.271 126.14 302.548C118.86 304.582 111.443 301.852 104.219 300.799C99.2232 300.071 94.2832 300.015 89.2452 300.144C85.2722 300.246 81.2722 300.437 77.3042 300.118C74.0112 299.853 70.7772 299.07 67.7842 297.655C64.2192 295.969 60.3232 293.629 58.1092 290.258C57.1032 288.726 55.8942 286.016 57.2572 284.406C58.1462 283.357 59.6992 282.922 60.9712 282.586C62.9892 282.052 65.0722 281.773 67.1402 281.511C76.8082 280.284 86.5622 278.738 95.8022 275.522C97.3332 274.989 98.8732 274.408 100.285 273.604C101.68 272.809 103.159 271.752 104.84 271.811C105.884 271.848 106.914 272.327 107.71 272.99C108.086 273.303 108.247 273.525 108.32 273.858C108.318 273.847 108.353 273.976 108.336 274.223C108.336 274.222 108.306 274.481 108.242 274.71C108.105 275.202 107.899 275.583 107.618 276.046C106.315 278.198 104.334 279.94 102.499 281.628C101.331 282.702 99.1522 284.129 98.7712 285.787C98.4302 287.272 100.004 288.098 101.06 288.767C102.061 289.4 103.172 289.952 104.334 290.208C106.421 290.668 108.323 290.088 110.202 289.196C112.24 288.229 114.174 287.207 116.392 286.691C117.941 286.331 119.518 286.204 121.106 286.223C122.881 286.244 125.647 286.112 127.113 287.265C128.201 288.121 128.267 289.914 128.474 291.163C128.79 293.065 131.681 292.259 131.367 290.367Z" fill="black"/>
<path d="M129.919 290.766C129.468 288.07 129.243 285.824 125.75 285.15C109.075 282.454 109.638 293.686 100.287 286.386C99.0479 285.375 113.131 275.603 109.526 273.02C107.272 271.335 103.442 273.806 100.85 275.041C96.6809 276.951 87.1039 280.77 77.6399 282.342C67.4999 284.139 56.2329 281.781 55.1059 286.947C54.8809 290.205 56.2329 293.013 64.5699 297.842C73.4709 302.897 79.6679 301.886 93.5259 301.661C107.722 301.436 116.398 306.491 124.96 304.469C128.003 303.795 131.27 302.672 131.27 300.089C131.271 299.527 129.919 290.766 129.919 290.766Z" fill="#FF6900"/>
<path d="M100.479 308.339C100.287 308.222 100.098 308.102 99.9153 307.972C99.7743 307.871 99.7513 307.842 99.9013 307.967C99.8183 307.897 99.7343 307.83 99.6533 307.759C99.5143 307.636 99.3813 307.505 99.2563 307.368C99.2453 307.356 99.1073 307.182 99.0983 307.186C99.1243 307.174 99.2983 307.468 99.1093 307.194C99.0253 307.072 98.9473 306.945 98.8763 306.815C98.8493 306.765 98.8013 306.619 98.7603 306.582C98.8253 306.642 98.8823 306.911 98.7973 306.663C98.7463 306.515 98.6973 306.368 98.6603 306.216C98.6433 306.147 98.6283 306.078 98.6143 306.008C98.6033 305.951 98.5543 305.633 98.5923 305.911C98.6293 306.178 98.5953 305.912 98.5903 305.851C98.5833 305.763 98.5773 305.675 98.5743 305.587C98.5683 305.437 98.5673 305.286 98.5713 305.136C98.5753 304.965 98.5853 304.794 98.5993 304.623C98.6073 304.529 98.7023 304.165 98.6553 304.092C98.6973 304.157 98.6042 304.44 98.6492 304.143C98.6622 304.059 98.6752 303.974 98.6882 303.89C98.7212 303.682 98.7583 303.474 98.7963 303.266C98.8703 302.863 98.9493 302.461 99.0273 302.059C99.1763 301.291 98.8113 300.403 97.9793 300.214C97.2373 300.045 96.2943 300.438 96.1343 301.262C95.7903 303.032 95.3863 304.833 95.6903 306.637C96.0113 308.541 97.3663 309.96 98.9643 310.93C99.6363 311.338 100.642 311.1 101.016 310.392C101.402 309.662 101.196 308.774 100.479 308.339Z" fill="black"/>
<path d="M85.7538 308.888C87.8958 308.752 90.1928 308.614 92.1538 307.656C93.5038 306.997 94.3388 305.787 94.7798 304.384C95.0188 303.626 95.1559 302.837 95.3119 302.059C95.4659 301.292 95.0929 300.403 94.2639 300.214C93.5179 300.044 92.5839 300.439 92.4189 301.262C92.2879 301.914 92.1678 302.569 91.9948 303.212C91.9218 303.486 91.8278 303.749 91.7358 304.016C91.6658 304.219 91.9208 303.627 91.7918 303.883C91.7638 303.938 91.7398 303.996 91.7108 304.051C91.6558 304.159 91.5959 304.266 91.5309 304.368C91.4989 304.419 91.4618 304.467 91.4298 304.517C91.2838 304.747 91.6639 304.256 91.5229 304.397C91.4309 304.489 91.3509 304.591 91.2549 304.68C91.2099 304.722 91.1598 304.76 91.1148 304.803C90.9568 304.956 91.4478 304.571 91.2228 304.719C91.1018 304.799 90.9828 304.88 90.8558 304.951C90.7348 305.019 90.5719 305.064 90.4629 305.146C90.5599 305.073 90.8068 305.011 90.5728 305.097C90.4838 305.13 90.3958 305.163 90.3058 305.194C89.9348 305.32 89.5529 305.416 89.1699 305.495C88.9209 305.547 88.6709 305.591 88.4199 305.631C88.3379 305.644 87.9378 305.704 88.1548 305.672C88.3678 305.64 88.1799 305.669 88.1389 305.674C88.0459 305.685 87.9528 305.697 87.8598 305.708C87.1598 305.789 86.4558 305.844 85.7528 305.888C84.9708 305.938 84.2148 306.542 84.2528 307.388C84.2878 308.158 84.9148 308.941 85.7538 308.888Z" fill="black"/>
<path d="M331.708 214.387C322.694 216.521 306.245 221.351 306.245 221.351L331.708 214.387Z" fill="white"/>
<path d="M331.309 212.94C322.752 214.974 314.284 217.427 305.846 219.904C303.997 220.447 304.784 223.343 306.644 222.797C315.082 220.32 323.55 217.867 332.107 215.833C333.984 215.387 333.189 212.494 331.309 212.94Z" fill="black"/>
<path d="M407.42 225.396C407.42 225.396 410.574 216.298 410.687 214.276L407.42 225.396Z" fill="white"/>
<path d="M408.866 225.795C409.893 222.83 410.901 219.841 411.699 216.805C411.916 215.979 412.131 215.132 412.187 214.277C412.24 213.468 411.46 212.777 410.687 212.777C409.831 212.777 409.24 213.465 409.187 214.277C409.186 214.3 409.162 214.414 409.174 214.428C409.181 214.435 409.127 214.761 409.187 214.342C409.226 214.066 409.209 214.205 409.197 214.263C409.166 214.414 409.145 214.567 409.114 214.718C409.039 215.084 408.951 215.448 408.858 215.81C408.622 216.729 408.354 217.64 408.078 218.547C407.537 220.326 406.959 222.094 406.364 223.855C406.235 224.236 406.106 224.617 405.974 224.997C405.709 225.762 406.277 226.637 407.022 226.842C407.846 227.069 408.6 226.563 408.866 225.795Z" fill="black"/>
<path d="M307.538 249.081C313.313 250.162 316.787 256.226 318.066 261.511C319.222 266.287 319.735 271.2 320.893 275.979C321.391 278.034 321.909 280.411 323.326 282.054C324.589 283.518 326.703 281.389 325.447 279.933C325.425 279.907 325.228 279.597 325.08 279.299C324.897 278.931 324.759 278.548 324.626 278.159C324.246 277.048 323.954 275.907 323.686 274.764C323.054 272.071 322.575 269.343 322.091 266.62C321.15 261.326 320.123 256.233 316.765 251.845C314.655 249.088 311.815 246.84 308.336 246.189C306.449 245.835 305.64 248.726 307.538 249.081Z" fill="black"/>
<path d="M419.06 203.322C418.947 203.371 418.833 203.419 418.72 203.468C418.564 203.535 418.637 203.509 418.749 203.456C418.562 203.545 418.364 203.616 418.172 203.693C417.837 203.827 417.5 203.955 417.159 204.071C416.874 204.167 416.586 204.255 416.293 204.326C416.16 204.358 416.027 204.387 415.892 204.411C415.758 204.435 415.535 204.415 415.984 204.403C415.922 204.405 415.86 204.416 415.799 204.421C415.68 204.43 415.56 204.434 415.441 204.431C415.362 204.429 414.952 204.389 415.265 204.428C415.563 204.465 415.163 204.398 415.075 204.371C415.024 204.356 414.97 204.328 414.918 204.319C414.786 204.297 415.272 204.498 415.062 204.381C414.963 204.326 414.861 204.278 414.765 204.217C414.716 204.186 414.67 204.148 414.62 204.119C414.472 204.032 414.903 204.361 414.724 204.198C414.505 203.998 414.304 203.791 414.119 203.558C413.629 202.941 412.503 203.008 411.998 203.558C411.396 204.213 411.475 205.021 411.998 205.679C412.9 206.816 414.26 207.509 415.727 207.426C417.435 207.33 419.03 206.58 420.576 205.914C420.897 205.776 421.177 205.338 421.265 205.018C421.364 204.659 421.319 204.181 421.114 203.862C420.628 203.109 419.834 202.988 419.06 203.322Z" fill="black"/>
<path d="M6.43693 259.317C1.70493 251.117 3.73292 228.317 11.8449 226.856C19.9569 225.396 17.9289 230.675 17.9289 230.675C17.9289 230.675 12.4079 227.98 12.1829 234.831C11.9579 241.683 17.1399 246.625 17.8159 247.411C18.4929 248.085 6.43693 259.317 6.43693 259.317Z" fill="white"/>
<path d="M7.73197 258.56C6.33397 256.084 5.82298 253.106 5.57898 250.306C5.27598 246.831 5.37796 243.276 5.93796 239.832C6.42596 236.827 7.18298 233.702 8.80198 231.087C10.266 228.722 12.301 227.761 15.155 228.137C15.716 228.211 16.195 228.395 16.419 228.622C16.345 228.547 16.591 228.891 16.579 228.856C16.521 228.683 16.679 229.566 16.643 229.098C16.657 229.283 16.648 229.465 16.642 229.65C16.637 229.796 16.655 229.401 16.614 229.806C16.598 229.962 16.537 230.131 16.481 230.279C17.215 229.98 17.95 229.681 18.684 229.383C16.781 228.469 14.308 228.268 12.614 229.723C11.154 230.977 10.744 232.996 10.68 234.834C10.591 237.398 11.244 239.917 12.32 242.227C13.122 243.949 14.207 245.523 15.42 246.98C15.761 247.39 16.111 247.877 16.521 248.221C17.184 248.776 16.359 247.178 16.375 247.196C16.27 247.079 16.614 246.873 16.306 247.243C16.077 247.518 16.199 247.401 16.1 247.524C15.935 247.73 15.762 247.929 15.589 248.127C15.108 248.677 14.607 249.211 14.103 249.739C12.99 250.905 11.846 252.042 10.695 253.17C8.94198 254.888 7.16896 256.586 5.37296 258.259C3.95796 259.578 6.08296 261.696 7.49396 260.38C11.028 257.086 14.664 253.782 17.822 250.12C18.358 249.498 19.079 248.773 19.281 247.944C19.567 246.771 18.552 246.03 17.871 245.245C15.297 242.28 13.417 238.466 13.698 234.456C13.753 233.675 13.885 232.684 14.459 232.094C14.788 231.756 15.127 231.67 15.534 231.657C16.113 231.638 16.19 231.665 16.804 231.852C16.959 231.899 17.11 231.958 17.264 232.012C17.527 232.103 16.896 231.842 17.17 231.974C18.1 232.421 19.014 232.033 19.373 231.078C20.04 229.305 19.554 227.117 17.956 226.025C16.365 224.937 14.256 225.013 12.433 225.261C10.795 225.483 9.44299 226.016 8.19599 227.121C5.68999 229.341 4.43597 232.898 3.64997 236.052C2.66697 239.998 2.30197 244.144 2.44797 248.204C2.59097 252.209 3.13698 256.532 5.13898 260.078C6.09098 261.755 8.68397 260.245 7.73197 258.56Z" fill="black"/>
<path d="M16.7992 278.634C16.7992 278.634 -4.72085 289.753 4.29315 256.507C8.23615 241.793 21.0812 246.174 20.6302 251.34C20.0672 256.507 9.70116 264.369 16.7992 278.634Z" fill="white"/>
<path d="M16.042 277.339C15.875 277.425 15.702 277.5 15.532 277.58C15.452 277.618 15.369 277.651 15.288 277.687C15.182 277.734 15.664 277.539 15.299 277.681C15.015 277.791 14.733 277.903 14.445 278.005C13.822 278.225 13.189 278.416 12.547 278.57C12.169 278.66 11.789 278.732 11.407 278.801C11.336 278.814 11.264 278.823 11.192 278.834C10.818 278.892 11.535 278.798 11.156 278.838C10.936 278.861 10.715 278.884 10.494 278.898C10.122 278.921 9.74802 278.928 9.37602 278.913C9.17002 278.905 8.96503 278.888 8.76003 278.869C8.66503 278.86 8.40003 278.814 8.76903 278.873C8.64003 278.853 8.509 278.834 8.382 278.805C7.995 278.716 7.62002 278.617 7.24702 278.481C6.89902 278.354 7.45203 278.578 7.23903 278.48C7.15303 278.441 7.06501 278.403 6.98201 278.358C6.77901 278.247 6.58001 278.134 6.38301 278.012C5.88901 277.706 5.277 277.04 4.873 276.346C4.348 275.445 4.03403 274.421 3.82103 273.219C3.14603 269.415 3.82102 265.334 4.60402 261.604C5.49302 257.369 6.44502 252.174 10.147 249.402C12.201 247.864 14.996 247.529 17.062 248.572C18.041 249.066 18.625 249.524 19.032 250.443C18.916 250.18 19.111 250.742 19.131 250.832C19.22 251.243 19.124 250.528 19.142 250.948C19.145 251.028 19.152 251.127 19.142 251.209C19.122 251.372 18.896 252.227 18.732 252.627C18.112 254.14 17.129 255.658 16.325 257.137C15.309 259.006 14.386 260.944 13.753 262.979C12.02 268.556 12.982 274.219 15.507 279.392C16.354 281.127 18.942 279.608 18.097 277.878C15.726 273.021 15.129 267.847 16.999 262.732C18.233 259.358 20.54 256.491 21.74 253.116C22.719 250.364 21.549 247.814 19.134 246.296C16.441 244.603 12.964 244.611 10.131 245.933C5.97803 247.87 3.85901 252.326 2.73702 256.526C1.45502 261.325 0.34003 266.441 0.62703 271.441C0.78803 274.257 1.43101 277.2 3.37801 279.347C4.81101 280.928 6.83901 281.711 8.93001 281.885C11.83 282.127 14.984 281.256 17.559 279.93C19.273 279.045 17.757 276.456 16.042 277.339Z" fill="black"/>
<path d="M33.7571 249.108C31.7071 248.448 29.4782 248.331 27.3382 248.365C25.0542 248.401 22.7772 248.64 20.5142 248.943C19.7112 249.05 19.0142 249.556 19.0142 250.443C19.0142 251.17 19.7052 252.051 20.5142 251.943C22.7072 251.65 24.9122 251.417 27.1262 251.369C29.1272 251.326 31.0681 251.391 32.9601 252.001C33.7311 252.249 34.5971 251.71 34.8051 250.953C35.0281 250.141 34.5311 249.357 33.7571 249.108Z" fill="black"/>
<path d="M389.845 132.171L407.196 135.99C408.661 136.327 409.337 137.899 408.773 139.135L386.916 182.602C386.24 183.95 384.775 184.624 383.423 184.399L365.508 180.805C364.044 180.581 363.142 178.896 363.818 177.548L386.127 133.856C386.803 132.508 388.38 131.834 389.845 132.171Z" fill="black"/>
<path d="M391.762 133.518L408.437 137.225C409.789 137.562 410.578 139.022 409.902 140.258L388.945 182.041C388.269 183.277 386.917 184.062 385.565 183.837L368.214 181.142C366.75 180.917 365.961 179.346 366.637 177.998L388.269 135.203C388.833 133.855 390.297 133.181 391.762 133.518Z" fill="white"/>
<path d="M391.363 134.964C396.127 136.023 400.892 137.082 405.656 138.141C406.456 138.319 408.93 138.435 408.529 139.655C408.168 140.753 407.434 141.839 406.917 142.868C401.751 153.167 396.585 163.467 391.419 173.766C390.494 175.61 389.569 177.455 388.644 179.299C388.227 180.131 387.818 181.399 387.052 181.987C386.318 182.551 385.733 182.353 384.897 182.223C383.704 182.038 382.512 181.853 381.319 181.667C378.278 181.195 375.237 180.722 372.197 180.25C371.208 180.096 370.219 179.943 369.23 179.789C368.553 179.684 367.696 179.551 367.936 178.746C368.173 177.948 368.75 177.136 369.123 176.397C371.402 171.888 373.681 167.38 375.96 162.871C380.458 153.972 384.981 145.086 389.455 136.175C389.853 135.383 390.344 134.788 391.363 134.964C393.251 135.291 394.062 132.401 392.16 132.071C389.966 131.691 388.026 132.466 386.961 134.47C386.806 134.762 386.662 135.061 386.513 135.357C385.704 136.957 384.895 138.558 384.086 140.158C381.255 145.758 378.425 151.357 375.594 156.957C372.888 162.31 370.182 167.663 367.477 173.015C366.818 174.318 366.144 175.614 365.501 176.925C364.334 179.301 365.192 182.121 368.032 182.622C373.366 183.564 378.747 184.286 384.099 185.118C385.076 185.27 386.073 185.494 387.056 185.254C388.471 184.908 389.626 183.924 390.31 182.657C390.927 181.514 391.478 180.329 392.06 179.168C397.517 168.289 402.974 157.41 408.43 146.53C409.219 144.956 410.009 143.383 410.798 141.809C410.93 141.547 411.068 141.287 411.193 141.021C412.215 138.852 411.174 136.454 408.835 135.778C406.937 135.23 404.94 134.912 403.012 134.483C399.942 133.801 396.872 133.118 393.802 132.436C393.255 132.314 392.707 132.193 392.16 132.071C390.28 131.653 389.476 134.545 391.363 134.964Z" fill="black"/>
<path d="M355.595 175.863C355.595 175.863 360.553 169.685 362.13 168.899C363.707 168.113 373.172 165.866 374.749 165.754C376.439 165.642 384.439 165.305 383.425 168.001C382.411 170.584 376.664 170.472 376.664 170.472L368.89 175.301C368.89 175.301 369.904 182.827 357.849 189.566" fill="white"/>
<path d="M356.656 176.924C357.525 175.843 358.419 174.781 359.332 173.737C360.365 172.556 361.647 170.884 362.887 170.195C363.168 170.039 362.659 170.289 362.891 170.191C363.004 170.143 363.122 170.103 363.238 170.064C363.603 169.942 363.969 169.825 364.337 169.715C365.32 169.421 366.313 169.158 367.307 168.903C369.306 168.391 371.316 167.909 373.339 167.503C373.705 167.43 374.071 167.36 374.438 167.297C374.863 167.223 374.425 167.279 374.748 167.254C375.426 167.202 376.11 167.187 376.789 167.18C378.375 167.165 380.326 167.101 381.781 167.694C381.995 167.781 382.293 168.006 382.03 167.691C381.793 167.408 382.316 167.424 381.898 167.669C381.051 168.166 380.395 168.531 379.388 168.733C378.27 168.957 376.868 168.719 375.839 169.217C374.405 169.911 373.052 170.948 371.701 171.787C370.511 172.526 369.321 173.265 368.132 174.004C367.724 174.257 367.323 174.784 367.389 175.299C367.438 175.685 367.406 176.084 367.371 176.47C367.355 176.646 367.346 176.665 367.374 176.478C367.358 176.586 367.341 176.694 367.32 176.801C367.272 177.043 367.221 177.283 367.159 177.521C367.015 178.076 366.83 178.623 366.595 179.147C364.751 183.254 360.896 186.112 357.092 188.269C355.412 189.221 356.923 191.814 358.606 190.859C362.842 188.458 367.093 185.198 369.185 180.661C369.916 179.076 370.618 177.085 370.39 175.299C370.142 175.731 369.895 176.162 369.647 176.594C370.837 175.855 372.027 175.116 373.216 174.377C374.087 173.836 374.959 173.295 375.83 172.753C376.257 172.488 376.997 172.206 377.329 171.822C377.585 171.526 376.3 171.884 376.843 171.97C377.129 172.015 377.474 171.954 377.761 171.936C378.823 171.868 379.904 171.732 380.932 171.451C382.849 170.926 385.541 169.365 384.938 166.956C384.438 164.958 381.945 164.54 380.224 164.337C378.429 164.126 376.553 164.092 374.75 164.252C372.916 164.415 371.085 164.904 369.298 165.324C367.14 165.831 364.969 166.346 362.859 167.03C360.882 167.671 359.601 168.971 358.218 170.485C356.943 171.88 355.72 173.326 354.536 174.799C353.336 176.293 355.446 178.429 356.656 176.924Z" fill="black"/>
<path d="M117.476 285.985C117.52 286.039 117.705 286.276 117.565 286.094C117.481 285.985 117.909 286.565 118.018 286.721C118.562 287.498 119.062 288.308 119.506 289.146C120.481 290.987 121.377 293.264 120.839 295.368C120.707 295.885 120.476 296.373 120.15 296.799C119.994 297.003 119.804 297.183 119.621 297.362C119.534 297.447 119.438 297.535 119.341 297.61C119.148 297.759 119.622 297.417 119.264 297.651C118.88 297.901 118.342 298.014 117.868 298.043C116.028 298.157 114.187 297.658 112.446 297.12C103.298 294.292 95.33 288.782 86.62 284.963C80.949 282.476 74.994 278.178 68.512 278.708C66.601 278.864 66.585 281.866 68.512 281.708C71.715 281.446 74.912 282.715 77.777 284.014C80.274 285.146 82.672 286.484 85.182 287.586C89.575 289.516 93.752 291.951 98.031 294.114C102.839 296.545 107.813 299.057 113.053 300.414C114.966 300.909 117.028 301.279 118.996 300.904C121.148 300.493 122.769 298.785 123.532 296.783C125.201 292.402 122.34 287.198 119.598 283.865C118.37 282.371 116.258 284.504 117.476 285.985Z" fill="black"/>
<path d="M131.367 290.367C131.077 288.618 130.792 286.775 129.526 285.428C128.039 283.846 125.813 283.597 123.771 283.385C120.25 283.019 116.622 283.258 113.284 284.498C111.236 285.259 109.191 286.587 107.322 287.158C106.538 287.398 105.83 287.471 105.132 287.317C103.871 287.039 102.765 286.351 101.723 285.6C101.63 285.533 101.355 285.277 101.275 285.268C102.674 285.428 101.523 286.137 101.673 286.534C101.721 286.66 101.459 286.736 101.709 286.533C101.558 286.655 101.695 286.539 101.86 286.367C102.026 286.195 102.189 286.021 102.359 285.853C103.221 284.997 104.14 284.198 105.03 283.372C107.056 281.494 109.279 279.459 110.543 276.96C111.965 274.151 111.263 271.585 108.548 269.941C106.647 268.79 104.398 268.502 102.292 269.237C100.621 269.82 99.2092 270.878 97.6152 271.614C93.6992 273.421 89.3132 274.417 85.1352 275.396C79.6532 276.681 74.1392 277.648 68.5532 278.336C64.6402 278.818 59.9212 278.99 56.4962 281.182C53.8302 282.888 53.2592 285.687 54.0612 288.6C55.0542 292.207 57.9232 294.935 60.8622 297.055C64.2072 299.467 68.0452 301.367 72.0682 302.328C80.7232 304.393 89.7832 302.588 98.5562 303.178C103.173 303.488 107.682 304.43 112.216 305.296C115.879 305.996 119.645 306.642 123.378 306.169C126.721 305.745 133.023 304.447 132.885 299.978C132.857 299.069 132.58 298.111 132.437 297.216C132.195 295.697 131.957 294.177 131.721 292.656C131.603 291.893 131.485 291.13 131.367 290.367C131.073 288.465 128.182 289.273 128.474 291.164C128.803 293.296 129.134 295.427 129.472 297.557C129.606 298.4 129.964 299.438 129.921 300.292C129.912 300.463 129.882 300.153 129.878 300.17C129.845 300.306 129.81 300.478 129.726 300.602C129.531 300.888 129.311 301.121 129.028 301.329C128.189 301.947 127.13 302.271 126.14 302.548C118.86 304.582 111.443 301.852 104.219 300.799C99.2232 300.071 94.2832 300.015 89.2452 300.144C85.2722 300.246 81.2722 300.437 77.3042 300.118C74.0112 299.853 70.7772 299.07 67.7842 297.655C64.2192 295.969 60.3232 293.629 58.1092 290.258C57.1032 288.726 55.8942 286.016 57.2572 284.406C58.1462 283.357 59.6992 282.922 60.9712 282.586C62.9892 282.052 65.0722 281.773 67.1402 281.511C76.8082 280.284 86.5622 278.738 95.8022 275.522C97.3332 274.989 98.8732 274.408 100.285 273.604C101.68 272.809 103.159 271.752 104.84 271.811C105.884 271.848 106.914 272.327 107.71 272.99C108.086 273.303 108.247 273.525 108.32 273.858C108.318 273.847 108.353 273.976 108.336 274.223C108.336 274.222 108.306 274.481 108.242 274.71C108.105 275.202 107.899 275.583 107.618 276.046C106.315 278.198 104.334 279.94 102.499 281.628C101.331 282.702 99.1522 284.129 98.7712 285.787C98.4302 287.272 100.004 288.098 101.06 288.767C102.061 289.4 103.172 289.952 104.334 290.208C106.421 290.668 108.323 290.088 110.202 289.196C112.24 288.229 114.174 287.207 116.392 286.691C117.941 286.331 119.518 286.204 121.106 286.223C122.881 286.244 125.647 286.112 127.113 287.265C128.201 288.121 128.267 289.914 128.474 291.163C128.79 293.065 131.681 292.259 131.367 290.367Z" fill="black"/>
<path d="M482.35 156.321C482.35 154.636 483.589 153.288 484.941 153.288C486.18 153.288 487.082 153.85 487.758 155.535C488.772 158.231 491.251 161.375 495.645 161.375C500.489 161.375 503.869 157.894 503.869 153.176C503.869 149.133 501.954 146.212 497.785 145.426C494.743 144.865 493.053 144.528 493.053 142.506C493.053 140.933 493.729 140.259 496.321 139.698C499.588 139.136 501.616 136.553 501.616 132.397C501.616 128.803 499.588 125.658 495.645 125.658C491.476 125.658 489.673 128.578 489.448 131.836C489.223 133.633 487.87 134.307 486.744 134.307C485.166 134.307 484.04 133.071 484.04 131.499C484.04 125.433 489.11 120.379 495.532 120.379C502.517 120.379 507.362 125.433 507.362 131.948C507.362 136.104 505.56 139.698 502.179 141.832C506.799 143.517 509.728 147.785 509.728 152.727C509.728 160.702 503.531 166.542 495.419 166.542C487.645 166.654 482.35 160.365 482.35 156.321Z" fill="black"/>
</svg>
