<svg xmlns="http://www.w3.org/2000/svg" width="256" height="256">
    <path fill="#ecf3f7"
        d="M130.196,5.267L130.196,5.267A124.929,124.929 0,0 1,255.125 130.196L255.125,130.196A124.929,124.929 0,0 1,130.196 255.125L130.196,255.125A124.929,124.929 0,0 1,5.267 130.196L5.267,130.196A124.929,124.929 0,0 1,130.196 5.267z" />
    <path fill="#f4f7fb"
        d="M96.649,190.636L76.985,192.371L76.117,180.514L94.336,160.849L96.649,190.636Z" />
    <path fill="#f4f7fb"
        d="M220.422,112.844L197.287,132.22L203.071,138.871L226.206,119.785L220.422,112.844Z" />
    <path fill="#f4f7fb"
        d="M19.726,105.036L21.75,129.328L10.472,130.196L8.447,105.615L19.726,105.036Z" />
    <path fill="#f4f7fb" d="M183.117,69.177L192.949,80.744L189.768,63.104L183.117,69.177Z" />
    <path fill="#f4f7fb"
        d="M126.436,54.139C124.315,54.621 119.669,55.527 118.049,55.296L111.976,75.828L109.952,92.89L129.906,93.179L126.436,54.139Z" />
    <path fill="#f4f7fb"
        d="M180.803,183.984L186.009,176.176L209.433,190.347L204.806,197.865L180.803,183.984Z" />
    <path fill="#dbe7ed" fill-rule="evenodd"
        d="M214.339,152.441L208.316,145.415L196.02,155.954L196.02,155.954L194.264,157.459L197.651,161.412L199.408,159.906L202.042,162.98L214.339,152.441Z" />
    <path fill="#f4f7fb"
        d="M6.038,144.156C5.792,141.947 5.604,139.72 5.476,137.478C11.566,138.433 17.291,138.23 20.883,137.704C51.537,135.102 64.84,140.596 70.045,143.488L219.159,217.905C215.867,221.244 212.388,224.399 208.739,227.352C207.007,225.686 206.439,224.682 205.699,223.374C204.929,222.015 203.975,220.328 201.336,217.231C196.015,210.985 109.471,169.129 66.864,148.983C59.634,145.564 47.72,141.29 20.883,144.067C15.409,144.633 10.467,144.607 6.038,144.156Z" />
    <path fill="#f4f7fb"
        d="M186.298,41.694L184.563,33.597L163.452,37.067L133.666,5.545L131.353,10.172L160.56,44.875L167.79,45.453L186.298,41.694Z" />
    <path fill="#dbe7ed"
        d="M52.08,71.983L37.65,72.901L37.76,74.633L34.874,74.817L35.756,88.67L37.487,88.559L38.186,99.526L75.127,97.175L73.73,75.241L53.528,76.527L53.345,73.641L52.19,73.714L52.08,71.983Z" />
    <path fill="#dbe7ed"
        d="M14.15,176.555C14.078,176.375 14.007,176.194 13.936,176.014C14.247,175.93 14.568,175.846 14.898,175.763C19.671,174.56 26.462,173.449 35.616,172.985C41.269,172.699 48.619,170.207 56.64,166.407C64.654,162.61 73.308,157.52 81.561,152.067C89.813,146.614 97.658,140.8 104.053,135.556C110.453,130.307 115.384,125.643 117.821,122.489C127.674,109.738 154.013,86.006 161.818,79.357C167.8,74.262 196.72,49.305 212.195,35.942C212.342,36.07 212.489,36.198 212.635,36.326C197.176,49.676 168.185,74.693 162.194,79.798C154.383,86.451 128.09,110.146 118.278,122.843C115.799,126.052 110.825,130.75 104.42,136.003C98.42,140.923 91.15,146.341 83.465,151.494L83.496,151.544C78.493,154.545 75.144,158.783 72.348,163.786C70.463,167.16 68.838,170.862 67.127,174.763C66.293,176.663 65.438,178.61 64.523,180.589C59.409,191.648 52.455,203.553 36.804,213.176C36.674,213.029 36.544,212.883 36.415,212.736C51.994,203.185 58.901,191.368 63.998,180.346C64.902,178.392 65.751,176.458 66.582,174.564C68.301,170.647 69.944,166.902 71.843,163.504C73.611,160.34 75.609,157.461 78.111,154.996C71.007,159.524 63.719,163.693 56.888,166.929C48.85,170.738 41.416,173.271 35.646,173.563C26.523,174.025 19.77,175.131 15.039,176.324C14.734,176.4 14.438,176.477 14.15,176.555Z" />
    <path fill="#dbe7ed" fill-rule="evenodd"
        d="M155.613,214.701L144.077,215.554L145.528,235.165L157.064,234.312L165.716,233.671L164.863,222.135L156.211,222.776L155.613,214.701Z" />
    <path fill="#dbe7ed" fill-rule="evenodd"
        d="M96.395,9.893L121.224,39.457L129.484,11.311L124.384,5.399C125.619,5.343 126.859,5.304 128.103,5.284L130.453,8.007L131.256,5.271C132.998,5.285 134.732,5.336 136.456,5.421L164,36.375L183.149,33.126L179.899,15.545C180.976,16.013 182.046,16.495 183.107,16.992L186,32.643L195.274,31.069L200.828,27.136C201.671,27.715 202.507,28.304 203.336,28.903L196.408,33.81L186.526,35.487L187.491,40.705L201.563,38.03L208.113,32.537C208.88,33.149 209.639,33.77 210.391,34.401L202.844,40.73L188.017,43.549L191.082,60.127L215.771,39.178C216.477,39.842 217.175,40.514 217.865,41.194L191.688,63.405L193.608,73.794L224.073,47.766C224.709,48.49 225.337,49.221 225.957,49.96L194.216,77.079L194.95,81.05L194.928,81.054L213.689,103.014L243.657,77.837C244.077,78.746 244.487,79.661 244.885,80.582L215.568,105.212L253.606,149.734C253.411,150.975 253.198,152.209 252.967,153.438L213.354,107.073L192.633,124.48L236.327,176.504L250.409,164.092L250.456,164.146C249.969,165.876 249.445,167.591 248.886,169.29L238.187,178.719L242.848,184.269C242.392,185.217 241.924,186.159 241.445,187.095L236.017,180.632L217.389,197.05L174.808,170.437L174.785,170.421C172.301,168.732 168.541,165.742 165.269,162.213C162.65,159.387 160.192,156.057 159.084,152.666L137.794,170.552L143.349,237.594L200.93,233.185C199.282,234.319 197.605,235.415 195.901,236.471L143.588,240.477L144.03,245.815L151.157,253.374C150.006,253.568 148.849,253.747 147.688,253.91L141.232,247.063L140.704,240.697L102.685,243.609L103.405,252.245C102.414,252.029 101.427,251.801 100.446,251.561L99.801,243.83L81.405,245.238C79.558,244.454 77.734,243.626 75.933,242.757L99.561,240.948L96.58,205.176L66.002,230.866L74.888,242.246C72.765,241.196 70.676,240.088 68.624,238.923L63.786,232.727L61.56,234.598C60.722,234.046 59.892,233.485 59.069,232.914L62.005,230.447L54.374,220.674L49.17,225.289C48.43,224.658 47.698,224.019 46.974,223.371L52.591,218.39L36.174,197.367L25.461,198.324C24.869,197.416 24.289,196.5 23.72,195.576L34.055,194.653L14.775,169.963L15.569,179.955C14.23,176.874 13.011,173.728 11.919,170.524L11.545,165.827L9.769,163.552C9.154,161.324 8.598,159.072 8.105,156.797L8.141,156.768L11.13,160.595L8.834,131.702L5.279,131.959C5.271,131.372 5.267,130.784 5.267,130.196C5.267,129.817 5.268,129.438 5.272,129.06L8.605,128.819L7.864,119.506L5.704,119.663C5.786,118.686 5.879,117.713 5.982,116.743L7.635,116.623L7.038,109.111C7.61,105.75 8.315,102.434 9.149,99.17L9.538,104.055L17.686,103.472L15.588,80.394C16.358,78.625 17.167,76.877 18.015,75.152L20.571,103.265L87.687,98.458L84.529,60.565L24.481,63.595C25.117,62.587 25.767,61.589 26.431,60.601L84.289,57.681L83.555,48.877L31.828,53.174C32.651,52.123 33.492,51.086 34.348,50.063L83.315,45.995L82.159,32.115L49.985,34.414C51.281,33.327 52.6,32.266 53.94,31.232L81.918,29.233L80.768,15.426C81.697,15.025 82.632,14.635 83.572,14.257L84.803,29.027L107.336,27.418L93.366,10.784C94.37,10.475 95.38,10.178 96.395,9.893ZM186.656,52.094L188.539,62.284L160.429,86.136L154.805,79.44L186.656,52.094ZM186.047,48.805L152.945,77.226L133.005,53.484C135.666,52.212 138.12,50.681 140.339,49.037C141.413,48.242 142.434,47.418 143.401,46.58L167.321,47.483L185.176,44.089L186.047,48.805ZM150.751,79.109L130.235,54.681C129.584,54.933 128.924,55.167 128.253,55.383L131.582,95.568L150.751,79.109ZM152.611,81.324L131.877,99.126L133.342,116.81C137.37,113.485 141.076,110.416 144.019,107.964C149.001,103.812 153.592,101.004 157.469,99.164L159.145,89.104L152.611,81.324ZM161.592,92.017L160.627,97.808C162.407,97.127 163.972,96.676 165.276,96.403L161.592,92.017ZM182.62,71.1L162.289,88.35L168.256,95.455L188.587,78.084L182.62,71.1ZM189.146,65.562L184.825,69.229L190.786,76.206L191.069,75.964L189.146,65.562ZM234.157,178.417L190.419,126.34L161.525,150.615C162.148,153.675 164.453,157.078 167.39,160.247C170.48,163.579 174.052,166.423 176.388,168.014L217.094,193.455L234.157,178.417ZM37.485,194.346L14.359,164.731L11.718,131.494L89.969,125.845L92.767,159.416C92.47,159.839 92.169,160.259 91.866,160.675C86.8,167.628 81.078,173.419 76.604,177.946L76.603,177.948C75.974,178.584 75.37,179.195 74.796,179.781L74.333,180.253L75.212,190.975L37.485,194.346ZM54.759,216.468L39.604,197.06L75.448,193.857L75.774,197.831L54.759,216.468ZM64.221,228.585L56.542,218.752L78.774,199.036L78.329,193.599L95.488,192.066L96.286,201.647L64.221,228.585ZM98.368,191.808L98.998,199.368L109.143,190.846L98.368,191.808ZM113.01,187.596L98.128,188.926L95.735,160.211C98.928,155.547 101.792,150.384 103.797,144.768C109.734,139.954 120.817,130.877 130.916,122.558L134.789,169.3L113.01,187.596ZM114.174,190.396L99.292,202.898L102.445,240.727L140.465,237.815L136.372,188.412L114.174,190.396ZM136.134,185.53L118.041,187.147L135.082,172.831L136.134,185.53ZM95.247,189.184L78.093,190.717L77.324,181.334C77.749,180.901 78.192,180.453 78.65,179.99C82.814,175.778 88.206,170.322 93.134,163.818L95.247,189.184ZM9.767,106.938L17.948,106.352L18.808,115.811L10.52,116.413L9.767,106.938ZM20.833,106.145L21.692,115.602L88.71,110.735L87.927,101.34L20.833,106.145ZM10.749,119.296L19.069,118.692L19.916,128.003L11.489,128.611L10.749,119.296ZM21.954,118.482L22.801,127.795L89.729,122.963L88.95,113.617L21.954,118.482ZM90.812,101.133L91.594,110.525L106.459,109.446L107.618,99.929L90.812,101.133ZM107.974,97.005L110.556,75.814L116.067,57.032C101.88,57.19 91.66,59.018 87.396,60.139L90.572,98.251L107.974,97.005ZM91.835,113.407L92.614,122.755L104.946,121.864L106.102,112.371L91.835,113.407ZM109.041,112.162C111.448,111.852 114.45,110.733 117.06,108.277C120.081,105.434 122.472,100.9 122.912,94.037H128.554L130.626,119.05C121.78,126.341 111.914,134.431 105.299,139.82C105.833,137.684 106.233,135.491 106.473,133.241L109.041,112.162ZM115.078,106.171C117.461,103.929 119.584,100.174 120.014,94.037H111.249L109.405,109.171C111.128,108.814 113.214,107.925 115.078,106.171ZM113.398,76.4L111.601,91.145H128.314L125.416,56.169C123.386,56.639 121.274,56.933 119.089,57.004L113.398,76.4ZM92.854,125.637L95.344,155.516C99.503,148.794 102.713,141.225 103.599,132.924L103.6,132.913L104.589,124.789L92.854,125.637ZM87.152,57.216C92.058,55.991 102.62,54.222 116.918,54.132L119.332,45.905L86.437,48.638L87.152,57.216ZM119.951,54.067C121.744,53.949 123.488,53.668 125.175,53.253L124.752,48.154L122.777,45.802L122.381,45.787L119.951,54.067ZM128.007,52.417C128.091,52.388 128.175,52.359 128.259,52.329L127.972,51.987L128.007,52.417ZM138.618,46.713C138.752,46.614 138.885,46.515 139.017,46.415L126.677,45.949L131.08,51.191C133.804,49.955 136.329,48.409 138.618,46.713ZM157.887,44.233L146.374,43.798C148.662,41.491 150.515,39.208 151.869,37.257L157.887,44.233ZM142.351,43.647C145.725,40.587 148.307,37.418 149.912,34.99L131.732,13.917L123.458,42.116L124.167,42.96L142.351,43.647ZM161.835,44.382L132.702,10.614L133.819,6.807L162.904,39.494L183.675,35.97L184.65,41.245L167.103,44.581L161.835,44.382ZM86.197,45.756L85.043,31.909L109.634,30.153L120.247,42.789L120.205,42.931L86.197,45.756ZM145.87,110.185C156.057,101.696 164.236,99.28 167.444,98.985L188.559,124.126L137.502,167.02L133.633,120.319C138.26,116.502 142.55,112.952 145.87,110.185ZM190.465,80.283L170.115,97.669L190.773,122.266L211.475,104.874L190.465,80.283Z" />
    <path fill="#ffffff" fill-rule="evenodd"
        d="M127.352,5.299L130.709,9.19L131.857,5.278C133.125,5.294 134.389,5.33 135.649,5.384L163.781,36.999L183.824,33.599L180.538,15.825C181.183,16.109 181.825,16.399 182.464,16.693L185.535,33.309L195.501,31.618L201.335,27.486C201.839,27.836 202.34,28.19 202.839,28.547L196.181,33.263L185.851,35.015L187.028,41.382L201.819,38.571L208.573,32.906C209.031,33.276 209.487,33.649 209.94,34.025L202.588,40.191L187.343,43.089L190.694,61.215L216.194,39.578C216.616,39.979 217.035,40.382 217.451,40.788L191.058,63.181L193.222,74.885L224.454,48.202C224.834,48.638 225.211,49.077 225.584,49.518L193.586,76.856L194.381,81.155L194.271,81.176L213.622,103.826L243.907,78.383C244.157,78.93 244.402,79.479 244.644,80.03L214.749,105.145L253.486,150.484C253.364,151.227 253.237,151.968 253.102,152.706L213.421,106.261L191.819,124.41L236.265,177.33L250.198,165.05C249.891,166.109 249.57,167.163 249.236,168.211L237.381,178.659L242.572,184.84C242.296,185.407 242.015,185.972 241.73,186.535L236.079,179.807L217.33,196.331L175.124,169.953L175.11,169.944C172.656,168.274 168.931,165.312 165.693,161.82C162.861,158.765 160.296,155.193 159.391,151.653L137.193,170.302L142.82,238.215L199.971,233.839C198.976,234.51 197.971,235.167 196.956,235.81L142.963,239.945L143.47,246.065L150.47,253.488C149.778,253.601 149.084,253.709 148.388,253.81L141.791,246.813L141.233,240.077L102.06,243.077L102.813,252.115C102.22,251.982 101.628,251.845 101.038,251.704L100.33,243.209L80.261,244.746C79.159,244.265 78.066,243.769 76.981,243.257L100.186,241.48L97.064,204.015L65.202,230.783L73.682,241.642C72.418,241 71.166,240.336 69.927,239.653L63.873,231.899L61.057,234.265C60.556,233.932 60.058,233.595 59.562,233.255L62.805,230.531L54.451,219.833L48.727,224.909C48.285,224.529 47.846,224.145 47.409,223.759L53.381,218.463L36.436,196.763L25.105,197.776C24.753,197.229 24.405,196.68 24.061,196.127L35.165,195.135L14.046,168.089L14.856,178.281C14.083,176.43 13.354,174.556 12.669,172.66L12.108,165.608L9.381,162.116C9.023,160.754 8.686,159.384 8.373,158.005L11.859,162.469L9.365,131.084L5.272,131.38C5.268,130.986 5.267,130.591 5.267,130.196C5.267,130.011 5.267,129.826 5.268,129.641L9.227,129.355L8.395,118.888L5.754,119.079C5.806,118.494 5.862,117.91 5.921,117.328L8.258,117.158L7.44,106.87C7.817,104.878 8.24,102.902 8.71,100.944L9.006,104.673L18.315,104.007L16.069,79.302C16.541,78.246 17.026,77.199 17.526,76.159L20.046,103.883L88.312,98.993L85.059,59.959L24.861,62.997C25.246,62.394 25.636,61.796 26.031,61.2L84.915,58.229L84.084,48.253L32.318,52.553C32.816,51.926 33.32,51.304 33.83,50.687L83.939,46.524L82.687,31.498L50.748,33.78C51.53,33.134 52.321,32.497 53.12,31.871L82.543,29.769L81.328,15.186C81.887,14.948 82.448,14.715 83.011,14.485L84.274,29.645L108.508,27.914L93.967,10.601C94.571,10.418 95.177,10.24 95.784,10.066L121.476,40.656L130.127,11.172L125.12,5.368C125.862,5.339 126.606,5.315 127.352,5.299ZM189.169,62.509L187.042,51.001L153.994,79.374L160.36,86.953L189.169,62.509ZM152.878,78.046L186.677,49.027L185.639,43.413L167.277,46.903L143.194,45.994C142.188,46.873 141.12,47.739 139.995,48.573C137.612,50.338 134.961,51.967 132.078,53.279L152.878,78.046ZM130.41,53.991L151.562,79.176L131.099,96.745L127.638,54.971C128.582,54.68 129.507,54.352 130.41,53.991ZM131.276,98.88L152.678,80.505L159.76,88.937L157.99,99.558C154.109,101.37 149.461,104.182 144.389,108.409C141.239,111.034 137.215,114.365 132.857,117.96L131.276,98.88ZM159.888,98.724L161.228,90.684L166.358,96.793C164.735,97.046 162.533,97.635 159.888,98.724ZM161.603,88.433L161.653,88.131L182.685,70.286L189.402,78.149L168.188,96.274L161.603,88.433ZM184.008,69.163L189.533,64.476L191.698,76.187L190.722,77.021L184.008,69.163ZM190.49,125.526L234.963,178.478L217.153,194.175L176.072,168.499C173.707,166.889 170.094,164.014 166.966,160.64C163.912,157.346 161.447,153.709 160.895,150.389L190.49,125.526ZM13.797,164.951L37.223,194.951L75.836,191.5L74.931,180.47L75.209,180.186C75.781,179.602 76.385,178.991 77.013,178.355C81.486,173.829 87.24,168.006 92.334,161.016C92.679,160.541 93.022,160.062 93.361,159.577L90.498,125.227L11.095,130.96L13.797,164.951ZM38.494,196.579L54.682,217.309L76.374,198.073L75.977,193.229L38.494,196.579ZM55.752,218.68L64.134,229.414L96.887,201.897L96.016,191.438L77.705,193.075L78.174,198.795L55.752,218.68ZM98.515,200.53L97.744,191.284L110.922,190.106L98.515,200.53ZM97.6,189.555L113.243,188.157L135.39,169.55L131.402,121.409C121.008,129.973 109.376,139.501 103.307,144.421C101.296,150.106 98.39,155.332 95.142,160.054L97.6,189.555ZM98.691,202.648L113.941,189.836L136.901,187.784L141.09,238.348L101.916,241.348L98.691,202.648ZM116.261,187.887L136.757,186.055L135.566,171.669L116.261,187.887ZM77.564,191.345L95.872,189.709L93.583,162.247C88.445,169.258 82.666,175.105 78.241,179.582L78.239,179.584C77.714,180.115 77.209,180.626 76.726,181.118L77.564,191.345ZM18.472,105.735L9.144,106.403L9.989,117.032L19.437,116.346L18.472,105.735ZM21.168,116.22L20.203,105.611L88.456,100.722L89.335,111.27L21.168,116.22ZM19.594,118.074L10.126,118.762L10.958,129.23L20.545,128.538L19.594,118.074ZM22.276,128.413L21.325,117.949L89.479,112.999L90.354,123.498L22.276,128.413ZM91.066,111.144L90.187,100.598L108.277,99.303L106.975,109.989L91.066,111.144ZM111.124,75.932L108.491,97.548L90.043,98.869L86.779,59.707C90.867,58.566 101.671,56.55 116.842,56.447L111.124,75.932ZM92.085,123.373L91.21,112.873L106.761,111.744L105.462,122.407L92.085,123.373ZM116.663,107.856C113.982,110.379 110.878,111.428 108.522,111.637L105.899,133.17L105.898,133.176C105.596,136.006 105.038,138.749 104.276,141.399C110.895,136.015 121.68,127.175 131.227,119.304L129.086,93.459H122.365C122.027,100.506 119.639,105.056 116.663,107.856ZM120.628,93.459C120.293,100.082 118.06,104.159 115.474,106.592C113.239,108.696 110.691,109.619 108.738,109.869L110.737,93.459H120.628ZM110.948,91.724L112.829,76.283L118.653,56.437C121.181,56.388 123.614,56.035 125.937,55.448L128.942,91.724H110.948ZM94.91,157.279L92.229,125.102L105.248,124.162L104.174,132.979L104.174,132.986C103.212,142.005 99.544,150.152 94.91,157.279ZM117.352,54.709C102.175,54.768 91.178,56.73 86.633,57.948L85.813,48.11L120.125,45.259L117.352,54.709ZM125.791,53.694C123.671,54.25 121.458,54.6 119.167,54.687L121.953,45.192L123.055,45.234L125.313,47.923L125.791,53.694ZM129.232,52.589C128.66,52.806 128.079,53.01 127.492,53.198L127.245,50.223L129.232,52.589ZM140.616,45.897C140.08,46.331 139.529,46.759 138.962,47.179C136.535,48.976 133.84,50.613 130.917,51.897L125.395,45.322L140.616,45.897ZM145.014,44.326L159.193,44.861L151.814,36.309C150.288,38.609 147.979,41.48 145.014,44.326ZM150.634,34.941C148.999,37.494 146.234,40.937 142.564,44.234L123.889,43.529L122.816,42.251L131.477,12.736L150.634,34.941ZM161.506,44.887L161.438,44.946L167.146,45.161L185.323,41.706L184.14,35.305L163.124,38.871L133.558,5.644L132.058,10.754L161.506,44.887ZM84.418,31.375L85.669,46.381L120.648,43.475L120.889,42.655L109.887,29.555L84.418,31.375ZM167.697,98.387C164.532,98.57 156.052,100.948 145.5,109.742C142.124,112.554 137.747,116.177 133.031,120.066L137.018,168.183L189.374,124.197L167.697,98.387ZM169.304,97.603L190.529,79.468L212.294,104.942L190.703,123.081L169.304,97.603ZM191.849,78.341L192.164,78.71L192.062,78.158L191.849,78.341Z" />
    <path fill="#5c6370"
        d="M146.39,181.093L146.39,181.093A1.157,1.157 0,0 1,147.546 182.25L147.546,196.709A1.157,1.157 0,0 1,146.39 197.866L146.39,197.866A1.157,1.157 0,0 1,145.233 196.709L145.233,182.25A1.157,1.157 0,0 1,146.39 181.093z" />
    <path fill="#ff6900"
        d="M140.028,172.065C140.028,170.982 140.906,170.104 141.99,170.104H147.258C151.57,170.104 155.066,173.599 155.066,177.912C155.066,182.224 151.57,185.72 147.258,185.72H141.99C140.906,185.72 140.028,184.841 140.028,183.758V172.065Z" />
    <path fill="#5c6370"
        d="M53.85,158.236L53.85,158.236A1.157,1.157 0,0 1,55.007 159.393L55.007,173.852A1.157,1.157 0,0 1,53.85 175.009L53.85,175.009A1.157,1.157 0,0 1,52.693 173.852L52.693,159.393A1.157,1.157 0,0 1,53.85 158.236z" />
    <path fill="#ff6900"
        d="M47.488,149.209C47.488,148.125 48.367,147.247 49.45,147.247H54.718C59.03,147.247 62.526,150.743 62.526,155.055C62.526,159.367 59.03,162.863 54.718,162.863H49.45C48.367,162.863 47.488,161.985 47.488,160.902V149.209Z" />
    <path fill="#5c6370"
        d="M77.564,54.129L77.564,54.129A1.157,1.157 0,0 1,78.721 55.286L78.721,69.745A1.157,1.157 0,0 1,77.564 70.902L77.564,70.902A1.157,1.157 0,0 1,76.407 69.745L76.407,55.286A1.157,1.157 0,0 1,77.564 54.129z" />
    <path fill="#ff6900"
        d="M71.202,45.101C71.202,44.018 72.08,43.14 73.164,43.14H78.432C82.744,43.14 86.24,46.635 86.24,50.948C86.24,55.26 82.744,58.756 78.432,58.756H73.164C72.08,58.756 71.202,57.878 71.202,56.794V45.101Z" />
    <path fill="#5c6370"
        d="M127.883,104.448L127.883,104.448A1.157,1.157 0,0 1,129.04 105.605L129.04,120.064A1.157,1.157 0,0 1,127.883 121.221L127.883,121.221A1.157,1.157 0,0 1,126.726 120.064L126.726,105.605A1.157,1.157 0,0 1,127.883 104.448z" />
    <path fill="#ff6900"
        d="M121.521,95.42C121.521,94.337 122.399,93.459 123.482,93.459H128.75C133.062,93.459 136.558,96.954 136.558,101.267C136.558,105.579 133.062,109.075 128.75,109.075H123.482C122.399,109.075 121.521,108.196 121.521,107.113V95.42Z" />
    <path fill="#5c6370"
        d="M225.05,124.691L225.05,124.691A1.157,1.157 0,0 1,226.207 125.848L226.207,140.307A1.157,1.157 0,0 1,225.05 141.464L225.05,141.464A1.157,1.157 0,0 1,223.893 140.307L223.893,125.848A1.157,1.157 0,0 1,225.05 124.691z" />
    <path fill="#ff6900"
        d="M218.688,115.663C218.688,114.58 219.566,113.702 220.649,113.702H225.917C230.229,113.702 233.725,117.197 233.725,121.51C233.725,125.822 230.229,129.318 225.917,129.318H220.649C219.566,129.318 218.688,128.44 218.688,127.356V115.663Z" />
    <path fill="#dbe7ed" fill-rule="evenodd"
        d="M190.303,82.769L196.473,89.666L185.239,99.498L179.068,92.601L190.303,82.769Z" />
</svg>