<svg width="96" height="96" viewBox="0 0 96 96" fill="none" xmlns="http://www.w3.org/2000/svg">
    <path
        d="M45.5 86.5C67.315 86.5 85 69.039 85 47.5C85 25.961 67.315 8.5 45.5 8.5C23.685 8.5 6 25.961 6 47.5C6 69.039 23.685 86.5 45.5 86.5Z"
        fill="#EDEEF2" />
    <path
        d="M77.6961 47.5719C77.6961 44.6189 78.6641 41.5809 77.9331 38.8579C77.1761 36.0399 74.7891 33.8929 73.3551 31.4269C71.9001 28.9249 71.2121 25.8009 69.1721 23.7699C67.1311 21.7389 63.9931 21.0539 61.4791 19.6059C59.0011 18.1789 56.8441 15.8029 54.0131 15.0499C51.2781 14.3209 48.2251 15.2849 45.2581 15.2849C42.2911 15.2849 39.2381 14.3209 36.5031 15.0499C33.6721 15.8029 31.5151 18.1789 29.0371 19.6059C26.5231 21.0539 23.3851 21.7389 21.3441 23.7699C19.3041 25.8009 18.6151 28.9249 17.1611 31.4269C15.7271 33.8929 13.3401 36.0399 12.5831 38.8579C11.8521 41.5809 12.8201 44.6189 12.8201 47.5719C12.8201 50.5249 11.8521 53.5639 12.5831 56.2869C13.3401 59.1049 15.7271 61.2509 17.1611 63.7179C18.6151 66.2199 19.3041 69.3439 21.3441 71.3749C23.3851 73.4059 26.5231 74.0909 29.0371 75.5389C31.5151 76.9659 33.6721 79.3419 36.5031 80.0949C39.2381 80.8239 42.2911 79.8589 45.2581 79.8589C48.2251 79.8589 51.2781 80.8239 54.0131 80.0949C56.8441 79.3419 59.0011 76.9659 61.4791 75.5389C63.9931 74.0909 67.1311 73.4059 69.1721 71.3749C71.2121 69.3439 71.9001 66.2199 73.3551 63.7179C74.7891 61.2509 77.1761 59.1049 77.9331 56.2869C78.6641 53.5639 77.6961 50.5239 77.6961 47.5719Z"
        fill="white" />
    <path
        d="M45.6001 54.9615C49.3171 54.9615 52.3291 51.9625 52.3291 48.2635C52.3291 44.5635 49.3171 41.5645 45.6001 41.5645C41.8831 41.5645 38.8701 44.5635 38.8701 48.2635C38.8701 51.9625 41.8831 54.9615 45.6001 54.9615Z"
        fill="#EDEEF2" />
    <path
        d="M67.1768 50.1616C70.8928 50.1616 73.9058 47.1626 73.9058 43.4636C73.9058 39.7646 70.8928 36.7656 67.1768 36.7656C63.4598 36.7656 60.4468 39.7646 60.4468 43.4636C60.4468 47.1626 63.4598 50.1616 67.1768 50.1616Z"
        fill="#EDEEF2" />
    <path
        d="M54.2402 35.2154C57.9572 35.2154 60.9702 32.2164 60.9702 28.5164C60.9702 24.8174 57.9572 21.8184 54.2402 21.8184C50.5232 21.8184 47.5112 24.8174 47.5112 28.5164C47.5112 32.2164 50.5232 35.2154 54.2402 35.2154Z"
        fill="#EDEEF2" />
    <path
        d="M32.3589 36.7534C36.0759 36.7534 39.0889 33.7544 39.0889 30.0554C39.0889 26.3564 36.0759 23.3574 32.3589 23.3574C28.6429 23.3574 25.6299 26.3564 25.6299 30.0554C25.6299 33.7544 28.6429 36.7534 32.3589 36.7534Z"
        fill="#EDEEF2" />
    <path
        d="M23.732 57.7456C27.448 57.7456 30.461 54.7476 30.461 51.0476C30.461 47.3486 27.448 44.3496 23.732 44.3496C20.015 44.3496 17.002 47.3486 17.002 51.0476C17.002 54.7476 20.015 57.7456 23.732 57.7456Z"
        fill="#EDEEF2" />
    <path
        d="M36.8691 74.524C40.5861 74.524 43.5991 71.525 43.5991 67.826C43.5991 64.126 40.5861 61.127 36.8691 61.127C33.1531 61.127 30.1401 64.126 30.1401 67.826C30.1401 71.525 33.1531 74.524 36.8691 74.524Z"
        fill="#EDEEF2" />
    <path
        d="M58.52 70.2378C62.236 70.2378 65.249 67.2388 65.249 63.5398C65.249 59.8408 62.236 56.8418 58.52 56.8418C54.803 56.8418 51.79 59.8408 51.79 63.5398C51.79 67.2388 54.803 70.2378 58.52 70.2378Z"
        fill="#EDEEF2" />
    <path
        d="M79.739 87.4997C71.985 87.4997 69.481 86.2007 69.481 80.5127C69.481 75.2087 71.167 72.5157 71.228 67.1127C71.305 60.2267 69.481 58.0167 69.481 54.6117C69.481 50.6177 69.481 46.4677 69.481 38.8117C69.481 32.6637 75.617 27.7197 75.783 20.0097C75.786 19.8387 75.642 19.6957 75.47 19.6927C74.934 19.6837 74.894 19.6167 74.892 19.4207C74.877 17.4577 74.917 15.2717 75.142 15.0467C75.557 14.6307 78.318 14.5957 79.74 14.5957C81.162 14.5957 83.924 14.6307 84.339 15.0467C84.564 15.2717 84.603 17.4577 84.589 19.4207C84.587 19.6167 84.547 19.6837 84.011 19.6927C83.838 19.6967 83.694 19.8387 83.698 20.0097C83.863 27.7197 90 32.6637 90 38.8117C90 46.4677 90 50.6177 90 54.6117C90 58.0177 88.176 60.2267 88.253 67.1127C88.313 72.5167 90 75.2087 90 80.5127C89.997 86.2007 87.492 87.4997 79.739 87.4997Z"
        fill="#EDEEF2" />
    <path fill-rule="evenodd" clip-rule="evenodd"
        d="M79.842 40.0464C82.263 40.0464 84.622 39.9714 86.73 39.8124C87.089 39.7854 87.392 40.0654 87.392 40.4224V52.0164C87.392 52.3174 87.174 52.5764 86.875 52.6224C84.781 52.9384 82.319 53.0864 79.842 53.0864C75.862 53.0864 71.898 52.7144 69.48 51.8584V39.4434C72.24 39.8614 75.977 40.0464 79.842 40.0464Z"
        fill="white" />
</svg>
