<svg width="40" height="40" viewBox="0 0 40 40" fill="none" xmlns="http://www.w3.org/2000/svg">
<path d="M37.1746 10.4898C37.4261 9.6303 37.1746 9 35.9853 9H32.0454C31.043 9 30.5849 9.5453 30.3333 10.1442C30.3333 10.1442 28.3302 15.1701 25.4916 18.4288C24.5754 19.3771 24.1568 19.6765 23.6574 19.6765C23.4076 19.6765 23.0447 19.3771 23.0447 18.5176V10.4898C23.0447 9.4584 22.7555 9 21.9201 9H15.7292C15.104 9 14.7267 9.4769 14.7267 9.9316C14.7267 10.9076 16.146 11.1331 16.2915 13.8836V19.8503C16.2915 21.1571 16.0634 21.3956 15.5603 21.3956C14.2255 21.3956 10.9773 16.3512 9.0497 10.5767C8.6742 9.4547 8.2951 9.0018 7.289 9.0018H3.351C2.2246 9.0018 2 9.5471 2 10.146C2 11.2218 3.3348 16.5453 8.2179 23.586C11.4732 28.3937 16.0562 31 20.2314 31C22.7339 31 23.0429 30.4214 23.0429 29.4233V25.7893C23.0429 24.6322 23.2819 24.3993 24.0742 24.3993C24.6562 24.3993 25.6587 24.7024 27.996 27.0185C30.6657 29.7652 31.1076 30.9982 32.6078 30.9982H36.5458C37.6704 30.9982 38.2328 30.4196 37.9094 29.2773C37.5555 28.1405 36.2799 26.4861 34.5876 24.5286C33.6677 23.4122 32.2934 22.2107 31.8748 21.61C31.2909 20.8355 31.4598 20.4935 31.8748 19.8059C31.8766 19.8078 36.6751 12.854 37.1746 10.4898Z" fill="black"/>
</svg>
