<svg width="40" height="40" viewBox="0 0 40 40" fill="none" xmlns="http://www.w3.org/2000/svg">
<path d="M35.9984 11.9966C35.6151 10.5666 34.4901 9.43826 33.0617 9.05326C30.4517 8.33656 20.0101 8.32496 20.0101 8.32496C20.0101 8.32496 9.57007 8.31326 6.95837 8.99826C5.55837 9.37996 4.40167 10.5333 4.01507 11.9616C3.32667 14.5716 3.32007 19.985 3.32007 19.985C3.32007 19.985 3.31337 25.425 3.99667 28.0083C4.38007 29.4366 5.50507 30.565 6.93507 30.95C9.57167 31.6666 19.9851 31.6783 19.9851 31.6783C19.9851 31.6783 30.4267 31.69 33.0367 31.0066C34.4634 30.6233 35.5934 29.4966 35.9817 28.0683C36.6717 25.46 36.6767 20.0483 36.6767 20.0483C36.6767 20.0483 36.7101 14.6066 35.9984 11.9966ZM16.6701 25L16.6784 15L25.3567 20.0083L16.6701 25Z" fill="black"/>
</svg>
