<svg width="40" height="40" viewBox="0 0 40 40" fill="none" xmlns="http://www.w3.org/2000/svg">
<path fill-rule="evenodd" clip-rule="evenodd" d="M25.4982 15.75V11.75C25.4982 8.7124 23.0358 6.25 19.9982 6.25C16.9606 6.25 14.4982 8.7124 14.4982 11.75V15.75H11.9847C9.68275 15.75 8.53175 15.75 7.93135 16.4985C7.33085 17.2471 7.58055 18.3706 8.07985 20.6177L9.60605 27.4854C10.2735 30.4887 10.6072 31.9903 11.704 32.8702C12.8008 33.75 14.3391 33.75 17.4156 33.75H22.5808C25.6573 33.75 27.1956 33.75 28.2924 32.8702C29.3892 31.9903 29.7229 30.4887 30.3903 27.4855L31.9165 20.6177C32.4158 18.3706 32.6655 17.2471 32.0651 16.4985C31.4646 15.75 30.3136 15.75 28.0117 15.75H25.4982ZM17.4982 15.75H22.4982V11.75C22.4982 10.3693 21.3789 9.25 19.9982 9.25C18.6175 9.25 17.4982 10.3693 17.4982 11.75V15.75Z" fill="#ABADBA"/>
</svg>
