<svg width="40" height="40" viewBox="0 0 40 40" fill="none" xmlns="http://www.w3.org/2000/svg">
<path d="M25.4982 11.75V15.75H28.0117C30.3136 15.75 31.4646 15.75 32.0651 16.4985C32.6655 17.2471 32.4158 18.3706 31.9165 20.6177L30.3903 27.4854C29.7229 30.4887 29.3892 31.9903 28.2924 32.8702C27.1956 33.75 25.6573 33.75 22.5808 33.75H17.4156C14.3391 33.75 12.8008 33.75 11.704 32.8702C10.6072 31.9903 10.2735 30.4887 9.60605 27.4854L8.07985 20.6177C7.58055 18.3706 7.33085 17.2471 7.93135 16.4985C8.53175 15.75 9.68275 15.75 11.9847 15.75H14.4982V11.75C14.4982 8.7124 16.9606 6.25 19.9982 6.25C23.0358 6.25 25.4982 8.7124 25.4982 11.75ZM17.4982 15.75H22.4982V11.75C22.4982 10.3693 21.3789 9.25 19.9982 9.25C18.6175 9.25 17.4982 10.3693 17.4982 11.75V15.75Z" fill="#FF6900"/>
<path d="M17.498 12.9883L21.039 15.7497H17.498V12.9883Z" fill="black"/>
<path d="M14.5937 10.7243C14.5309 11.0568 14.4981 11.3999 14.4981 11.7506V15.7506H12.1693L11.2277 10.3064C11.0719 9.40552 12.107 8.78522 12.828 9.34742L14.5937 10.7243Z" fill="black"/>
<path fill-rule="evenodd" clip-rule="evenodd" d="M12.688 18.75H24.8861L28.6148 21.6577C29.0447 21.9929 29.129 22.6116 28.7667 23.019C25.8894 26.2541 20.0081 29.8382 15.8024 30.9207C15.2685 31.0582 14.7532 30.6913 14.6592 30.1481L12.688 18.75Z" fill="black"/>
</svg>
