<svg width="40" height="40" viewBox="0 0 40 40" fill="none" xmlns="http://www.w3.org/2000/svg">
<path d="M11.7238 29.0528C11.8932 28.714 12.2395 28.5 12.6182 28.5H27.3822C27.7609 28.5 28.1072 28.714 28.2766 29.0528L30.6384 33.7764C30.8046 34.1088 30.5629 34.5 30.1912 34.5H9.80922C9.43752 34.5 9.19582 34.1088 9.36202 33.7764L11.7238 29.0528Z" fill="black"/>
<path d="M31 16.0926C31 23.7963 22 31.5 20 31.5C18 31.5 9 23.7963 9 16.0926C9 12.2407 11 5.5 20 5.5C29 5.5 31 12.2407 31 16.0926ZM17.875 12.5C17.3918 12.5 17 12.8918 17 13.375V18.625C17 19.1082 17.3918 19.5 17.875 19.5H20.5C22.433 19.5 24 17.933 24 16C24 14.067 22.433 12.5 20.5 12.5H17.875Z" fill="#FF6900"/>
</svg>
