<svg width="40" height="40" viewBox="0 0 40 40" fill="none" xmlns="http://www.w3.org/2000/svg">
<path d="M14.2358 7.74917C14.6217 6.48367 16.0001 5.64956 17.3791 6.14481C19.9821 7.07951 22.9726 8.86904 25.6632 10.9276C28.354 12.9863 30.8649 15.4059 32.4518 17.6755C33.3035 18.8937 32.835 20.4652 31.6841 21.1556L10.8772 33.6364C8.92178 34.8092 6.54925 32.9556 7.21433 30.7746L14.2358 7.74917ZM16.0119 12.1696C20.2058 14.0839 23.8781 16.9979 26.7034 20.6587L29.6434 18.8951C28.2703 17.0866 26.1805 15.0859 23.8475 13.3009C21.5102 11.5127 19.03 10.0184 16.9266 9.16995L16.0119 12.1696Z" fill="#ABADBA"/>
</svg>
