<svg width="40" height="40" viewBox="0 0 40 40" fill="none" xmlns="http://www.w3.org/2000/svg">
<path d="M14.2358 7.74917C14.6217 6.48367 16.0001 5.64956 17.3791 6.14481C19.9821 7.07951 22.9726 8.86904 25.6632 10.9276C28.354 12.9863 30.8649 15.4059 32.4518 17.6755C33.3035 18.8937 32.835 20.4652 31.6841 21.1556L10.8772 33.6364C8.92178 34.8092 6.54925 32.9556 7.21433 30.7746L14.2358 7.74917ZM16.0119 12.1696C20.2058 14.0839 23.8781 16.9979 26.7034 20.6587L29.6434 18.8951C28.2703 17.0866 26.1805 15.0859 23.8475 13.3009C21.5102 11.5127 19.03 10.0184 16.9266 9.16995L16.0119 12.1696Z" fill="#FF6900"/>
<path d="M16.1272 18.1249C16.1272 20.3253 14.3434 22.1091 12.1429 22.1091C9.94254 22.1091 8.15869 20.3253 8.15869 18.1249C8.15869 15.9245 9.94254 14.1406 12.1429 14.1406C14.3434 14.1406 16.1272 15.9245 16.1272 18.1249Z" fill="black"/>
<path d="M26.0881 24.0995C26.0881 26.2999 24.3043 28.0837 22.1039 28.0837C19.9035 28.0837 18.1196 26.2999 18.1196 24.0995C18.1196 21.8991 19.9035 20.1152 22.1039 20.1152C24.3043 20.1152 26.0881 21.8991 26.0881 24.0995Z" fill="black"/>
<path fill-rule="evenodd" clip-rule="evenodd" d="M13.139 33.0642C15.3394 33.0642 17.1233 31.2804 17.1233 29.08C17.1233 26.8796 15.3394 25.0957 13.139 25.0957C10.9386 25.0957 9.15479 26.8796 9.15479 29.08C9.15479 31.2804 10.9386 33.0642 13.139 33.0642Z" fill="black"/>
</svg>
