<svg width="40" height="40" viewBox="0 0 40 40" fill="none" xmlns="http://www.w3.org/2000/svg">
<path fill-rule="evenodd" clip-rule="evenodd" d="M20 34C27.732 34 34 27.732 34 20C34 12.268 27.732 6 20 6C12.268 6 6 12.268 6 20C6 27.732 12.268 34 20 34ZM20 31C26.0751 31 31 26.0751 31 20C31 19.7914 30.9942 19.5842 30.9827 19.3785C28.9836 19.5309 26.5628 19.4748 24.1915 19.0394C20.8056 18.4177 17.2621 16.9705 15.3348 13.9779C14.0886 14.914 12.5195 16.1693 11.1555 17.2798C10.3301 17.9518 9.5859 18.5658 9.0434 19.0157C9.0147 19.34 9 19.6683 9 20C9 26.0751 13.9249 31 20 31Z" fill="#FF6900"/>
<path d="M15 25C16.1046 25 17 24.1046 17 23C17 21.8954 16.1046 21 15 21C13.8954 21 13 21.8954 13 23C13 24.1046 13.8954 25 15 25Z" fill="black"/>
<path fill-rule="evenodd" clip-rule="evenodd" d="M26 25C27.1046 25 28 24.1046 28 23C28 21.8954 27.1046 21 26 21C24.8954 21 24 21.8954 24 23C24 24.1046 24.8954 25 26 25Z" fill="black"/>
</svg>
